<?xml version="1.0" encoding="utf-8"?>
<!-- Generator: Adobe Illustrator 16.0.0, SVG Export Plug-In . SVG Version: 6.00 Build 0)  -->
<!DOCTYPE svg PUBLIC "-//W3C//DTD SVG 1.1//EN" "http://www.w3.org/Graphics/SVG/1.1/DTD/svg11.dtd">
<svg version="1.1" id="Layer_1" xmlns="http://www.w3.org/2000/svg" xmlns:xlink="http://www.w3.org/1999/xlink" x="0px" y="0px"
	 width="640px" height="640px" viewBox="0 0 640 640" style="enable-background:new 0 0 640 640;" xml:space="preserve">
<style type="text/css">
<![CDATA[
	.st0{fill:#121C20;}
	.st1{fill:#FFFFFF;stroke:#000000;stroke-width:1.7277;stroke-linecap:round;stroke-miterlimit:10;}
	.st2{fill:none;stroke:#D69F5A;stroke-width:0.216;stroke-linecap:round;stroke-linejoin:round;stroke-miterlimit:10;}
	.st3{fill:none;stroke:#D69F5A;stroke-width:0.2879;stroke-linecap:round;stroke-miterlimit:10;}
	.st4{fill:none;stroke:#A30A24;stroke-width:2.3035;stroke-linecap:round;stroke-miterlimit:10;}
	.st5{fill:#F4AC0C;}
	.st6{fill:#F4F1EF;}
	.st7{fill:#F7F4F2;}
	.st8{fill:#FCFCFC;}
	.st9{opacity:0.1;}
	.st10{fill:#FFC943;}
	.st11{fill:#FFFFFF;}
	.st12{fill:none;stroke:#000000;stroke-width:0.5759;stroke-linecap:round;stroke-miterlimit:10;}
	.st13{fill:#D17D43;}
	.st14{fill:#D69F5A;}
	.st15{fill:#A0172E;}
	.st16{fill:#A30A24;}
]]>
</style>
<g>
	<path class="st15" d="M513.7,320c0,107.3-83.6,194.3-186.8,194.3c-103.2,0-186.8-87-186.8-194.3s83.6-194.3,186.8-194.3
		C430,125.7,513.7,212.7,513.7,320z"/>
	<g>
		<path class="st1" d="M392.8,356.3"/>
		<path class="st1" d="M268.9,356"/>
		<path class="st6" d="M268.9,356"/>
		<path class="st4" d="M409,357.1"/>
		<path class="st4" d="M253.5,356.3"/>
		<g>
			<path class="st11" d="M234.3,389.3c-28.9-5.3-29.4-39.9-29.1-59.1c0.2-9.3-1.3-19.3,10.6-24.9c5-2.3,16.6-3,21.2,3.6
				c6.1,8.7,4,28.1,5,36.5c0.7,6,4.3,14.3,10.1,12.8"/>
		</g>
		<path class="st14" d="M268.2,269.8c0,0-1-32.2,7.5-33.1c7.4-0.8,27.3,3.7,32.5,9.7C308.2,246.4,286.4,248.8,268.2,269.8z"/>
		<path d="M392.6,269.8c0,0,1-32.2-7.5-33.1c-7.4-0.8-27.3,3.7-32.5,9.7C352.7,246.4,374.4,248.8,392.6,269.8z"/>
		<path class="st7" d="M233.7,320.9c0,4.6-4.4,8.3-9.8,8.3c-5.4,0-9.8-3.7-9.8-8.3c0-4.6,4.4-8.3,9.8-8.3
			C229.3,312.6,233.7,316.3,233.7,320.9z"/>
		<g>
			<path class="st11" d="M252.1,356.8c-14.1,14.2-20.2,33.2-20.2,53.1c0,45.3,44.1,62.1,98.8,62.1s99.4-16.8,99.4-62.1
				c0-21.4-6.9-38.2-21.2-54.9"/>
			<path class="st11" d="M410.4,356.3c0,0,1.6-5.8,2.9-13.5c2-12.2,0.9-23.3-0.6-33.3c-5.5-36.6-37.3-66-82.7-66
				c-45.4,0-73.8,28-82.3,64.6c-2.5,10.6-1.9,25.4-0.2,36.2c1.3,7.9,4.1,12,4.1,12S301.2,368.5,410.4,356.3"/>
		</g>
		<path class="st14" d="M350.5,327.3c0,5.8-7.9,9.5-11.6,5.1c-1.3-1.6-6.3,1-7.2-5c-0.9-5.7,3.6-5,9.3-5
			C346.8,322.4,350.5,321.5,350.5,327.3z"/>
		<path d="M327.1,321.7c1.1-1.2,11.2-1.1,11.8,0c0.1,0.2-4.1,7.5-5.8,7.7C330.9,329.6,326.8,322.1,327.1,321.7z"/>
		<line class="st12" x1="312.6" y1="315.8" x2="299.7" y2="312.6"/>
		<line class="st12" x1="311.6" y1="322.6" x2="296" y2="322.5"/>
		<line class="st12" x1="312.6" y1="329.6" x2="298" y2="332.6"/>
		<line class="st12" x1="354.7" y1="315.8" x2="367.6" y2="312.6"/>
		<line class="st12" x1="355.6" y1="322.6" x2="371.3" y2="322.5"/>
		<line class="st12" x1="354.7" y1="329.6" x2="369.2" y2="332.6"/>
		<g>
			<g>
				<path d="M322.5,332.6c0.6,0,0.6-0.9,0-0.9S321.9,332.6,322.5,332.6L322.5,332.6z"/>
			</g>
		</g>
		<path class="st12" d="M347.3,299.6c3.2-11.2,22.7-17.3,32.6-1.9"/>
		<path class="st12" d="M315.4,299.6c-3.2-11.2-22.7-17.3-32.6-1.9"/>
		<path class="st12" d="M315.9,342.7c-0.2,5.6,13.9,9.4,16.6-2c0,0,0.2-10.9,0.2-11.4"/>
		<path class="st12" d="M351,342.7c0.2,5.6-15.3,9.4-18.2-2c0,0-0.2-10.9-0.2-11.4"/>
		<g>
			<g>
				<path class="st5" d="M332.6,367c0,0.7-0.3,0.6-0.7,0.6c-0.3,0-0.6,0.1-0.6-0.6c0-0.7,0.3-1.3,0.6-1.3
					C332.4,365.7,332.6,366.3,332.6,367z"/>
				<g>
					<path class="st10" d="M342,377.5c0,5.7-4.6,10.3-10.3,10.3c-5.7,0-10.3-4.6-10.3-10.3c0-5.7,4.6-10.3,10.3-10.3
						C337.4,367.2,342,371.9,342,377.5z"/>
					<rect x="322" y="378" class="st5" width="21" height="4"/>
					<path class="st5" d="M333.1,382c0-0.5-0.5-0.9-1.1-0.9c-0.6,0-1.3,0.4-1.3,0.9c0,0.4,0.7,0.8,0.7,0.9v4.9h1v-4.9
						C332.4,382.8,333.1,382.4,333.1,382z"/>
				</g>
			</g>
			<g>
				<path class="st16" d="M330.4,365.9c-48.2,0-80.5-7.2-81.5-7.2l-0.8-4l0.7-4.7c-4-0.2,61,12.2,163.4,0.2l0.6,5.2L412,359
					C385.2,363.1,352.5,365.9,330.4,365.9z"/>
			</g>
		</g>
		<path class="st14" d="M261.6,431.9c-1.1,16.7-15.6,15.4-20,10.2c-1.5-1.8-7.1-11.7-8.2-18.6c-1.1-6.7,8.2,0.7,14.7-1.2
			C255.5,420.2,262.1,425.2,261.6,431.9z"/>
		<g>
			<g>
				<path class="st8" d="M294.2,470.5c-0.2,1.7-28.5,2.9-30.2-0.8c-1.3-2.9-1-8.6,0.2-11C268.5,449.2,295.2,461.5,294.2,470.5z"/>
			</g>
			<path class="st3" d="M275.1,471.8c0,0-0.8-5,0-6.7"/>
			<path class="st3" d="M282.1,471.8c0,0-0.8-5,0-6.7"/>
			<path class="st3" d="M268.2,470.8c0,0-0.8-5,0-6.7"/>
		</g>
		<g>
			<g>
				<path class="st8" d="M371.5,470.5c0.2,1.7,28.5,2.9,30.2-0.8c1.3-2.9,0.9-8.6-0.2-11C397.1,449.2,370.5,461.5,371.5,470.5z"/>
			</g>
			<path class="st3" d="M390.6,471.8c0,0,0.8-5,0-6.7"/>
			<path class="st3" d="M383.6,471.8c0,0,0.8-5,0-6.7"/>
			<path class="st3" d="M397.5,470.8c0,0,0.8-5,0-6.7"/>
		</g>
		<path class="st13" d="M429.6,411.5c0,6.8-3.8,16.5-9.8,13.5c-6.4-3.2-14.6,1.7-14.6-5c0-6.8,5.7-13.5,12.5-13.5
			C424.4,406.5,429.6,404.8,429.6,411.5z"/>
		<path class="st9" d="M430.4,410.2c0-19.7-5.9-35.6-18-51l0.7-3.5l-0.6-5.2c-0.1,0-0.2,0-0.3,0c0.4-2.1,0.9-4.6,1.4-7.3
			c2-12.2,0.9-23.3-0.6-33.3c-2.3-15.4-9.3-29.5-20-40.7c0.1-5.5,0-31.3-7.5-32.1c-7.3-0.8-27.7,3.6-33.2,9.5
			c-7-1.7-9.3-2.7-23.3-2.7V472c0,0,1.8,0,1.8,0c14.7,0,28.7-1,41.2-3.7c-0.3,0.8-0.3,1.6-0.3,2.3c0.2,1.7,28.5,3,30.2-0.7
			c1.3-2.9,1-8.5-0.2-11c-0.1-0.3-0.3-0.5-0.4-0.8C419.3,448.3,430.4,432.8,430.4,410.2z M356.3,247.3c4.3,1,12.5,3.5,21.4,9.4
			C371.3,252.7,364.1,249.5,356.3,247.3z"/>
		<g>
			<path class="st11" d="M422.4,376.6c5.9,15.5-5.2,27.7-23.1,37.3c-6.3,3.4-23.1,16.6-34.1,9.6c-5-3-12.9-15.2-7-21.9
				c7.8-8.7,19.6-6.1,29.9-14.7c7.4-6.2,11.3-13.6,12.7-16.2C410.4,352.2,420.4,371.4,422.4,376.6z"/>
		</g>
		<path class="st2" d="M356.9,410.4c1.4,0.5,4.3-0.1,5.2-1.9"/>
		<path class="st2" d="M358.8,416.3c1.4,0.5,4.3-0.1,5.2-1.9"/>
		<path class="st2" d="M362.8,421.3c1.4,0.5,4.3-0.1,5.2-1.9"/>
	</g>
	<g>
		<g>
			<g>
				<path class="st0" d="M175.2,147.6c-2.4,4.6-3.7,6.9-6,11.5c-0.2,0.5-0.6,0.9-0.9,1c-0.4,0.1-0.9,0.1-1.4-0.1
					c-1.6-0.7-3.4-1.3-5.3-1.6c-1.9-0.3-3.8-0.2-5.8,0.2c-2.5,0.5-4.7,1.3-6.6,2.6c-1.9,1.3-3.5,2.8-4.7,4.6c-1.2,1.8-2,3.8-2.4,6
					c-0.4,2.2-0.4,4.5,0.1,6.8c0.5,2.3,1.3,4.4,2.6,6.3c1.2,1.9,2.7,3.4,4.5,4.6c1.1,0.8,2.3,1.4,3.5,1.9c-0.6-0.2-1.3-0.5-1.9-0.8
					c-0.9-0.9-1.7-1.8-2.4-2.9c-1.2-1.9-2.1-3.9-2.5-6.3c-0.5-2.3-0.5-4.6-0.1-6.8c0.4-2.2,1.2-4.2,2.4-6c1.2-1.8,2.7-3.4,4.7-4.6
					c1.9-1.3,4.1-2.1,6.6-2.6c2-0.4,3.9-0.4,5.8-0.2c1.9,0.3,3.7,0.9,5.3,1.6c0.6,0.2,1.1,0.3,1.4,0.1c0.4-0.1,0.7-0.5,0.9-1
					c2.4-4.6,3.6-6.9,6-11.5c0.2-0.7,0.2-1.2-0.1-1.6c-0.2-0.2-0.4-0.4-0.7-0.6c-0.1-0.1-0.2-0.1-0.3-0.2c-0.1-0.1-0.2-0.1-0.3-0.2
					c-0.1-0.1-0.2-0.1-0.3-0.2c-0.1-0.1-0.2-0.1-0.3-0.2c-0.1-0.1-0.2-0.1-0.3-0.2c-0.1-0.1-0.2-0.1-0.3-0.2
					c-0.1-0.1-0.2-0.1-0.3-0.2c-0.1-0.1-0.2-0.1-0.3-0.2c-0.1-0.1-0.2-0.1-0.3-0.2c-0.1-0.1-0.2-0.1-0.3-0.2
					c-0.1-0.1-0.2-0.1-0.3-0.2c-0.1-0.1-0.2-0.1-0.3-0.2c-0.1-0.1-0.2-0.1-0.3-0.2c0.2,0.1,0.3,0.3,0.4,0.4
					C175.4,146.4,175.4,146.9,175.2,147.6z"/>
				<path class="st0" d="M152.9,191.5c0.7,0.2,1.3,0.5,2,0.6C154.2,191.9,153.6,191.7,152.9,191.5z"/>
				<path class="st0" d="M177.7,189.8c-0.1-0.1-0.3-0.2-0.4-0.3c-0.1-0.1-0.2-0.1-0.3-0.2c-0.1-0.1-0.2-0.1-0.3-0.2
					c-0.1-0.1-0.2-0.1-0.3-0.2c-0.1-0.1-0.2-0.1-0.3-0.2c-0.1-0.1-0.2-0.1-0.3-0.2c-0.1-0.1-0.2-0.1-0.3-0.2
					c-0.1-0.1-0.2-0.1-0.3-0.2c-0.1-0.1-0.2-0.1-0.3-0.2c-0.1-0.1-0.2-0.1-0.3-0.2c-0.1-0.1-0.2-0.1-0.3-0.2
					c-0.1-0.1-0.2-0.1-0.3-0.2c-0.1-0.1-0.2-0.1-0.3-0.2c-0.1-0.1-0.2-0.1-0.3-0.2c0.1,0,0.1,0.1,0.2,0.1c3.7,3.7,5.6,5.6,9.2,9.3
					c0.4,0.6,0.5,1.1,0.4,1.6c-0.2,0.5-0.5,0.9-0.9,1.2c-2.4,2.1-5.1,4.1-8.1,5.6c-3,1.5-6.1,2.6-9.6,3.2c-3,0.5-6,0.7-8.9,0.5
					c-2.9-0.2-5.8-0.8-8.5-1.7c-2.7-0.9-5.3-2.2-7.7-3.7c-0.6-0.4-1.1-0.7-1.6-1.1c0.1,0.1,0.2,0.1,0.3,0.2c0.1,0.1,0.2,0.1,0.3,0.2
					c0.1,0.1,0.2,0.1,0.3,0.2c0.1,0.1,0.2,0.1,0.3,0.2c0.1,0.1,0.2,0.1,0.3,0.2c0.1,0.1,0.2,0.1,0.3,0.2c0.1,0.1,0.2,0.1,0.3,0.2
					c0.1,0.1,0.2,0.1,0.3,0.2c0.1,0.1,0.2,0.1,0.3,0.2c0.1,0.1,0.2,0.1,0.3,0.2c0.1,0.1,0.2,0.1,0.3,0.2c0.1,0.1,0.2,0.1,0.3,0.2
					c0.1,0.1,0.2,0.1,0.3,0.2c0.6,0.5,1.3,0.9,1.9,1.3c2.4,1.5,5,2.8,7.7,3.7c2.7,0.9,5.5,1.5,8.5,1.7c2.9,0.2,5.9,0.1,8.9-0.5
					c3.4-0.6,6.6-1.7,9.6-3.2c2.9-1.5,5.6-3.5,8.1-5.6c0.4-0.4,0.8-0.8,0.9-1.2c0.2-0.5,0-1-0.4-1.6
					C183.2,195.3,181.4,193.5,177.7,189.8z"/>
				<path class="st0" d="M174.3,145.3c-0.2-0.1-0.4-0.2-0.6-0.3C173.9,145.1,174.1,145.2,174.3,145.3z"/>
				<path class="st0" d="M135.8,200c-0.1-0.1-0.3-0.3-0.4-0.4C135.6,199.7,135.7,199.8,135.8,200z"/>
				<path class="st0" d="M173.3,186.5C173.3,186.5,173.2,186.5,173.3,186.5C173.2,186.5,173.3,186.5,173.3,186.5z"/>
				<path class="st0" d="M220.9,164.1c0.4,0.9,0.9,1.8,1.3,2.7C221.7,165.9,221.3,165,220.9,164.1z"/>
				<path class="st0" d="M208.5,189.7c-0.4,1.5-0.7,3-1.1,4.6c-0.4,1.5-0.8,3-1.1,4.6c-0.2,1.1-0.9,1.7-2,1.9
					c-5.1,0.7-7.7,1-12.8,1.8c-0.5,0.1-1,0-1.4-0.2c0,0,0,0,0,0c0.1,0.1,0.1,0.1,0.2,0.2c0,0,0,0,0,0c0.1,0.1,0.1,0.1,0.2,0.2
					c0,0,0,0,0,0c0.1,0.1,0.1,0.1,0.2,0.2c0,0,0,0,0,0c0.1,0.1,0.1,0.1,0.2,0.2c0,0,0,0,0,0c0.1,0.1,0.1,0.1,0.2,0.2c0,0,0,0,0,0
					c0.1,0.1,0.1,0.1,0.2,0.2c0,0,0,0,0,0c0.1,0.1,0.1,0.1,0.2,0.2c0,0,0,0,0,0c0.1,0.1,0.1,0.1,0.2,0.2c0,0,0,0,0,0
					c0.1,0.1,0.1,0.1,0.2,0.2c0,0,0,0,0,0c0.1,0.1,0.1,0.1,0.2,0.2c0,0,0,0,0,0c0.1,0.1,0.1,0.1,0.2,0.2c0,0,0,0,0,0
					c0.1,0.1,0.1,0.1,0.2,0.2c0,0,0,0,0,0c0.1,0.1,0.1,0.1,0.2,0.2c0,0,0,0,0,0c0.1,0.1,0.1,0.1,0.2,0.2c0.4,0.2,0.9,0.3,1.4,0.2
					c5.1-0.8,7.6-1.1,12.7-1.8c1.1-0.1,1.8-0.8,2-1.9c0.3-1.5,0.7-3.1,1.1-4.6c0.4-1.5,0.8-3,1.1-4.6c8.6-1.1,13.2-1.6,21.1-2.4
					c-0.5-1-1-2-1.5-3C222.5,188,217.9,188.6,208.5,189.7z"/>
				<path class="st0" d="M220.8,174.3c-0.1,0-0.2,0-0.2,0C220.6,174.3,220.7,174.3,220.8,174.3z"/>
				<path class="st0" d="M222.3,167.1c0.2,0.4,0.4,0.8,0.6,1.2C222.7,167.9,222.5,167.5,222.3,167.1z"/>
				<path class="st0" d="M227.5,140.3c-0.6-0.9-0.9-1.4-1.4-2.3c-0.1-0.1-0.3-0.3-0.6-0.5c-0.1-0.1-0.2-0.1-0.3-0.2
					c-0.1-0.1-0.2-0.1-0.3-0.2c-0.1-0.1-0.2-0.1-0.3-0.2c-0.1-0.1-0.2-0.1-0.3-0.2c-0.1-0.1-0.2-0.1-0.3-0.2
					c-0.1-0.1-0.2-0.1-0.3-0.2c-0.1-0.1-0.2-0.1-0.3-0.2c-0.1-0.1-0.2-0.1-0.3-0.2c-0.1-0.1-0.2-0.1-0.3-0.2
					c-0.1-0.1-0.2-0.1-0.3-0.2c-0.1-0.1-0.2-0.1-0.3-0.2c-0.1-0.1-0.2-0.1-0.3-0.2c-0.1-0.1-0.2-0.1-0.3-0.2l0,0
					c0.1,0.1,0.2,0.2,0.3,0.3c0.6,0.9,0.9,1.4,1.4,2.3c12.2,22.3,18,33.6,29,56.2c0.3,0.6,0.3,1,0,1.4c-0.3,0.4-0.8,0.6-1.6,0.7
					c-5,0.4-7.5,0.6-12.5,1.1c-0.7,0.1-1.2,0-1.6-0.2c0,0,0,0,0,0c0.1,0.1,0.1,0.1,0.2,0.2c0,0,0,0,0,0c0.1,0.1,0.1,0.1,0.2,0.2
					c0,0,0,0,0,0c0.1,0.1,0.1,0.2,0.2,0.2c0,0,0,0,0,0c0.1,0.1,0.1,0.1,0.2,0.2c0,0,0,0,0,0c0.1,0.1,0.1,0.1,0.2,0.2c0,0,0,0,0,0
					c0.1,0.1,0.1,0.1,0.2,0.2c0,0,0,0,0,0c0.1,0.1,0.1,0.1,0.2,0.2c0,0,0,0,0,0c0.1,0.1,0.1,0.1,0.2,0.2c0,0,0,0,0,0
					c0.1,0.1,0.1,0.2,0.2,0.2c0,0,0,0,0,0c0.1,0.1,0.1,0.1,0.2,0.2c0,0,0,0,0,0c0.1,0.1,0.1,0.1,0.2,0.2c0,0,0,0,0,0
					c0.1,0.1,0.1,0.1,0.2,0.2c0,0,0,0,0,0c0.1,0.1,0.1,0.1,0.2,0.2c0,0,0,0,0,0c0.1,0.1,0.1,0.2,0.2,0.2c0.4,0.2,0.9,0.3,1.6,0.2
					c5-0.5,7.5-0.7,12.5-1c0.8-0.1,1.3-0.3,1.6-0.7c0.3-0.4,0.3-0.9,0-1.4C245.5,173.9,239.7,162.6,227.5,140.3z"/>
				<path class="st0" d="M219.4,161.1c0.2,0.4,0.4,0.8,0.6,1.2C219.8,161.9,219.6,161.5,219.4,161.1z"/>
				<path class="st0" d="M220.2,162.7c0.2,0.3,0.3,0.7,0.5,1C220.5,163.4,220.4,163,220.2,162.7z"/>
				<path class="st0" d="M223,168.6c0.2,0.5,0.5,1,0.7,1.5C223.5,169.6,223.2,169.1,223,168.6z"/>
				<path class="st0" d="M219.7,174.4c-0.1,0-0.3,0-0.4,0C219.4,174.5,219.5,174.4,219.7,174.4z"/>
				<path class="st0" d="M223,174.1c-0.1,0-0.3,0-0.4,0C222.8,174.1,222.9,174.1,223,174.1z"/>
				<path class="st0" d="M217.8,167.9c0.4-1.8,0.7-3.6,1.1-5.3c0.1-0.6,0.3-1.2,0.4-1.7c-0.9-1.8-1.8-3.7-2.9-6
					c-0.4,1.5-0.8,3.2-1.2,4.9c-0.4,1.8-0.8,3.5-1.1,5.3c-0.4,1.8-0.7,3.6-1.1,5.3c-0.4,1.7-0.8,3.4-1.2,4.9
					c1.7-0.2,3.2-0.4,4.5-0.5c0.1-0.5,0.2-1,0.4-1.6C217,171.5,217.4,169.7,217.8,167.9z"/>
				<path class="st0" d="M223.8,170.3c0.2,0.5,0.5,1,0.7,1.5C224.3,171.3,224.1,170.8,223.8,170.3z"/>
				<path class="st0" d="M224.6,172c0.3,0.6,0.6,1.2,0.9,1.8C225.2,173.2,224.9,172.6,224.6,172z"/>
				<path class="st0" d="M225.5,173.8c-0.5,0-1,0.1-1.5,0.2C224.4,173.9,224.9,173.9,225.5,173.8z"/>
				<path class="st0" d="M245.2,146.8c-0.6,0-1.1-0.1-1.6-0.4c0.1,0,0.1,0.1,0.2,0.1c0,0,0.1,0.1,0.1,0.1c0,0,0.1,0.1,0.2,0.1
					c0,0,0.1,0.1,0.1,0.1c0.1,0,0.1,0.1,0.2,0.1c0,0,0.1,0.1,0.1,0.1c0.1,0,0.1,0.1,0.2,0.1c0,0,0.1,0.1,0.1,0.1
					c0.1,0,0.1,0.1,0.2,0.1c0,0,0.1,0.1,0.1,0.1c0,0,0.1,0.1,0.2,0.1c0,0,0.1,0.1,0.1,0.1c0,0,0.1,0.1,0.2,0.1c0,0,0.1,0.1,0.1,0.1
					c0,0,0.1,0.1,0.2,0.1c0,0,0.1,0.1,0.1,0.1c0.1,0,0.1,0.1,0.2,0.1c0,0,0.1,0.1,0.1,0.1c0.1,0,0.1,0.1,0.2,0.1
					c0,0,0.1,0.1,0.1,0.1c0.1,0,0.1,0.1,0.2,0.1c0,0,0.1,0.1,0.1,0.1c0.1,0,0.1,0.1,0.2,0.1c0,0,0.1,0.1,0.1,0.1
					c0.1,0,0.1,0.1,0.2,0.1c0,0,0.1,0.1,0.1,0.1c0.1,0,0.1,0.1,0.2,0.1c0,0,0.1,0.1,0.1,0.1c0.4,0.3,1,0.5,1.6,0.4
					c5.1-0.4,8.1-0.6,12.4-0.9c0.1,1.4,0.2,2.7,0.2,4c-0.1-2.2-0.3-4.5-0.4-7C254.7,146,251.6,146.2,245.2,146.8z"/>
				<path class="st0" d="M299.7,132.6c0,0-0.1,0-0.1-0.1c-0.1,0-0.1-0.1-0.1-0.1c0,0-0.1,0-0.1-0.1c-0.1,0-0.1-0.1-0.1-0.1
					c0,0-0.1-0.1-0.1-0.1c-0.1,0-0.1-0.1-0.1-0.1c0,0-0.1,0-0.1-0.1c0,0-0.1-0.1-0.1-0.1c0,0-0.1,0-0.1-0.1c-0.1,0-0.1-0.1-0.1-0.1
					c0,0-0.1,0-0.1-0.1c-0.1,0-0.1-0.1-0.1-0.1c0,0-0.1,0-0.1-0.1c0,0-0.1-0.1-0.1-0.1c0,0-0.1,0-0.1-0.1c0,0-0.1-0.1-0.1-0.2
					c0,0-0.1,0-0.1-0.1c0,0-0.1-0.1-0.1-0.1c0,0-0.1,0-0.1-0.1c0,0-0.1-0.1-0.1-0.1c0,0-0.1,0-0.1-0.1c-0.1,0-0.1-0.1-0.1-0.1
					c0,0-0.1,0-0.1-0.1c0,0-0.1-0.1-0.1-0.1c0,0-0.1,0-0.1-0.1c-0.1,0-0.1-0.1-0.1-0.1c0,0-0.1,0-0.1-0.1c0,0-0.1-0.1-0.1-0.1
					c0.4,0.3,0.7,0.8,0.8,1.4c0.1,4.3,0.1,6.4,0.2,10.7c0,0.5-0.2,1-0.5,1.5c-0.4,0.5-0.9,0.7-1.6,0.7c-6.4,0.2-9.6,0.3-15.9,0.5
					c0.8,18.9,1.2,28.4,2,47.3c0,0.5-0.1,1-0.5,1.4c-0.4,0.4-0.8,0.7-1.5,0.7c-5.1,0.2-7.7,0.4-12.8,0.7c-0.5,0-1-0.1-1.4-0.5
					c0,0,0.1,0.1,0.2,0.1c0,0,0.1,0,0.1,0.1c0.1,0,0.1,0.1,0.2,0.1c0,0,0.1,0.1,0.1,0.1c0.1,0,0.1,0.1,0.2,0.1c0,0,0.1,0.1,0.1,0.1
					c0.1,0,0.1,0.1,0.2,0.1c0,0,0.1,0.1,0.1,0.1c0.1,0,0.1,0.1,0.2,0.1c0,0,0.1,0.1,0.1,0.1c0.1,0,0.1,0.1,0.2,0.1
					c0,0,0.1,0.1,0.1,0.1c0.1,0,0.1,0.1,0.2,0.1c0,0,0.1,0.1,0.1,0.1c0.1,0,0.1,0.1,0.2,0.1c0,0,0.1,0.1,0.1,0.1
					c0.1,0,0.1,0.1,0.2,0.1c0,0,0.1,0,0.1,0.1c0.1,0,0.1,0.1,0.2,0.1c0,0,0.1,0.1,0.1,0.1c0.1,0,0.1,0.1,0.2,0.1
					c0,0,0.1,0.1,0.1,0.1c0.1,0,0.1,0.1,0.2,0.1c0,0,0,0.1,0.1,0.1c0.1,0,0.1,0.1,0.2,0.1c0,0,0.1,0.1,0.1,0.1
					c0.1,0,0.1,0.1,0.2,0.1c0,0,0.1,0.1,0.1,0.1c0.5,0.4,0.9,0.5,1.4,0.5c5.1-0.3,7.7-0.4,12.8-0.7c0.6,0,1.1-0.3,1.5-0.7
					c0.4-0.4,0.5-0.9,0.5-1.4c-0.8-18.9-1.2-28.4-2-47.3c6.4-0.2,9.6-0.4,15.9-0.5c0.7,0,1.2-0.3,1.6-0.8c0.4-0.5,0.5-1,0.5-1.5
					c-0.1-4.3-0.1-6.4-0.2-10.7C300.4,133.4,300.2,132.9,299.7,132.6z"/>
				<path class="st0" d="M351.8,161.1c0,0-0.1-0.1-0.1-0.1c0,0-0.1,0-0.1-0.1c0,0-0.1-0.1-0.1-0.1c0,0-0.1-0.1-0.1-0.1
					c0,0-0.1-0.1-0.1-0.1c0,0-0.1,0-0.1-0.1c0,0-0.1-0.1-0.1-0.1c0,0-0.1,0-0.1-0.1c0,0-0.1-0.1-0.1-0.1c0,0-0.1-0.1-0.1-0.1
					c0,0-0.1-0.1-0.1-0.1c0,0-0.1-0.1-0.1-0.1c0,0-0.1-0.1-0.1-0.1c0,0-0.1,0-0.1-0.1c0,0-0.1-0.1-0.1-0.1c0,0-0.1,0-0.1-0.1
					c0,0-0.1-0.1-0.1-0.1c0,0-0.1,0-0.1-0.1c0,0-0.1-0.1-0.1-0.1c0,0-0.1,0-0.1-0.1c0,0-0.1-0.1-0.1-0.1c0,0-0.1,0-0.1-0.1
					c0,0-0.1-0.1-0.1-0.1c0,0-0.1,0-0.1-0.1c0,0-0.1-0.1-0.1-0.1c0,0-0.1,0-0.1-0.1c0,0-0.1-0.1-0.1-0.1c0.4,0.3,0.6,0.8,0.5,1.5
					c-0.2,4.1-0.2,6.2-0.4,10.3c0,0.5-0.2,0.9-0.6,1.4c-0.4,0.4-0.8,0.6-1.4,0.6c-8.1-0.3-12.1-0.4-20.2-0.4
					c-0.1,7.9-0.1,11.9-0.2,19.8c0,1.2-0.7,1.8-2,1.8c-5.3-0.1-7.4,0-12.7,0c-0.4,0-0.3-0.2-0.3-0.4c0,0,0,0,0,0
					c0,0.1-0.4,0.1-0.3,0.2c0.1,0.1-0.1,0.1,0,0.2c0.1,0.1,0,0.1,0.1,0.2c0.1,0.1,0.1,0.1,0.2,0.2c0.1,0.1,0.1,0.1,0.2,0.2
					c0.1,0.1,0.2,0.1,0.2,0.2c0.1,0.1,0.2,0.1,0.2,0.2c0.1,0.1,0.2,0.1,0.3,0.2c0.1,0.1,0.2,0.1,0.3,0.2c0.1,0.1,0.2,0.1,0.3,0.2
					c0.1,0.1,0.2,0.1,0.3,0.2c0.1,0.1,0.2,0.1,0.3,0.2c0.1,0.1,0.2,0.1,0.3,0.2c0.3,0.3,0.7,0.5,1.2,0.6c5.3,0,8,0,13.3,0
					c1.3,0,2-0.6,2-1.8c0.1-7.9,0.1-11.9,0.2-19.8c8.1,0.1,12.1,0.2,20.2,0.5c0.6,0,1.1-0.2,1.4-0.6c0.4-0.4,0.5-0.9,0.6-1.4
					c0.2-4.1,0.2-6.2,0.4-10.3c0-0.7-0.2-1.2-0.5-1.5C351.9,161.2,351.8,161.1,351.8,161.1z"/>
				<path class="st0" d="M332.1,159.4c0.1,0,0.2,0,0.3,0C332.3,159.4,332.2,159.4,332.1,159.4z"/>
				<path class="st0" d="M309.4,192.5c0-0.1-0.1-0.1-0.1-0.2C309.3,192.4,309.3,192.4,309.4,192.5z"/>
				<path class="st0" d="M334.1,159.4c0.1,0,0.1,0,0.2,0C334.2,159.4,334.1,159.4,334.1,159.4z"/>
				<path class="st0" d="M309.2,192.1c-0.1-0.2-0.1-0.4-0.1-0.6C309.1,191.7,309.2,191.9,309.2,192.1z"/>
				<path class="st0" d="M341.9,157.6c0.1,0,0.3,0,0.4,0C342.2,157.6,342.1,157.6,341.9,157.6z"/>
				<path class="st0" d="M338,159.4c0.1,0,0.1,0,0.2,0C338.2,159.4,338.1,159.4,338,159.4z"/>
				<path class="st0" d="M340,159.5C340,159.5,340.1,159.5,340,159.5C340.1,159.5,340,159.5,340,159.5z"/>
				<path class="st0" d="M344.3,159.5c0.1,0,0.2,0,0.3,0C344.5,159.5,344.4,159.5,344.3,159.5z"/>
				<path class="st0" d="M360.3,133.2C360.3,133.2,360.3,133.2,360.3,133.2c-0.1-0.1-0.2-0.2-0.3-0.2c0,0,0,0,0,0
					c-0.1-0.1-0.2-0.1-0.2-0.2c0,0,0,0,0-0.1c-0.1-0.1-0.2-0.1-0.2-0.1c0,0,0,0,0-0.1c-0.1-0.1-0.2-0.1-0.2-0.2c0,0,0,0,0,0
					c-0.1-0.1-0.2-0.1-0.2-0.2c0,0,0,0,0-0.1c-0.1-0.1-0.2-0.1-0.2-0.2c0,0,0,0,0,0c-0.1-0.1-0.2-0.1-0.2-0.2c0,0,0,0,0-0.1
					c-0.1-0.1-0.2-0.1-0.2-0.2c0,0,0,0,0,0c-0.1-0.1-0.2-0.1-0.2-0.2c0,0,0,0,0,0c-0.1-0.1-0.2-0.1-0.2-0.2c0,0,0,0,0,0
					c-0.1-0.1-0.2-0.1-0.2-0.2c0,0,0,0,0,0c-0.1-0.1-0.2-0.1-0.2-0.2c0,0,0,0,0-0.1c-0.1-0.1-0.2-0.1-0.2-0.2
					c0.3,0.4,0.5,0.9,0.5,1.5c-0.2,4.3-0.3,6.4-0.5,10.7c0,0.5-0.2,0.9-0.6,1.4c-0.4,0.4-0.9,0.6-1.6,0.6
					c-11.2-0.5-16.9-0.6-28.1-0.7c-0.1,5.4-0.1,9.1-0.1,14.4c1.4,0,2.7,1.1,4,1.1c-0.1,0-0.2,0-0.3,0c0-4,0.1-7.3,0.1-11.6
					c11.2,0.1,16.8-0.2,28.1,0.2c0.7,0,1.3-0.4,1.6-0.9c0.4-0.4,0.6-1,0.6-1.5c0.2-4.3,0.3-6.5,0.5-10.8c0-0.6-0.1-1.2-0.5-1.6
					C360.5,133.3,360.4,133.3,360.3,133.2z"/>
				<path class="st0" d="M336,159.4c0.1,0,0.1,0,0.2,0C336.2,159.4,336.1,159.4,336,159.4z"/>
				<path class="st0" d="M364.2,193.8c0-0.1-0.1-0.1-0.1-0.2C364.1,193.6,364.2,193.7,364.2,193.8z"/>
				<path class="st0" d="M403,182.2c0.3,0,0.7,0.1,1.1,0.1C403.7,182.2,403.3,182.2,403,182.2z"/>
				<path class="st0" d="M399.9,181.9c0.3,0,0.7,0.1,1,0.1C400.6,181.9,400.3,181.9,399.9,181.9z"/>
				<path class="st0" d="M390.7,181c0.1,0,0.1,0,0.2,0C390.8,181,390.7,181,390.7,181z"/>
				<path class="st0" d="M410.9,185.9C410.9,185.9,410.9,185.9,410.9,185.9c-0.1-0.1-0.2-0.2-0.3-0.2c0,0,0,0,0,0
					c-0.1-0.1-0.2-0.1-0.2-0.2c0,0,0,0,0,0c-0.1-0.1-0.1-0.1-0.2-0.2c0,0,0,0,0,0c-0.1-0.1-0.1-0.1-0.2-0.2c0,0,0,0,0,0
					c-0.1-0.1-0.2-0.1-0.2-0.2c0,0,0,0,0,0c-0.1-0.1-0.2-0.1-0.2-0.2c0,0,0,0,0,0c-0.1-0.1-0.2-0.1-0.2-0.2c0,0,0,0,0,0
					c-0.1-0.1-0.2-0.1-0.2-0.2c0,0,0,0,0,0c-0.1-0.1-0.2-0.1-0.2-0.2c0,0,0,0,0,0c-0.1-0.1-0.2-0.1-0.2-0.2c0,0,0,0,0,0
					c-0.1-0.1-0.2-0.1-0.2-0.2c0,0,0,0,0,0c-0.1-0.1-0.1-0.1-0.2-0.2c0,0,0,0,0,0c-0.1-0.1-0.1-0.1-0.2-0.2c0,0,0,0,0,0
					c0.3,0.4,0.5,0.9,0.4,1.5c-0.5,4.5-0.7,6.8-1.2,11.3c-0.1,0.5-0.3,0.9-0.6,1.3c-0.4,0.4-0.9,0.5-1.5,0.5
					c-15.5-1.6-23.3-2.2-38.9-3.1c-0.5,0-0.9-0.2-1.2-0.4c0.1,0.1,0.2,0.1,0.3,0.2c0.1,0.1,0.2,0.1,0.3,0.2c0.1,0.1,0.2,0.1,0.3,0.2
					c0.1,0.1,0.2,0.1,0.3,0.2c0.1,0.1,0.2,0.1,0.3,0.2c0.1,0.1,0.2,0.1,0.3,0.2c0.1,0.1,0.2,0.1,0.3,0.2c0.1,0.1,0.2,0.1,0.3,0.2
					c0.1,0.1,0.2,0.1,0.3,0.2c0.1,0.1,0.2,0.2,0.3,0.2c0.1,0.1,0.2,0.1,0.3,0.2c0.1,0.1,0.2,0.1,0.2,0.2c0.1,0.1,0.2,0.1,0.3,0.2
					c0.3,0.4,0.8,0.6,1.4,0.6c15.6,0.9,23.3,1.5,38.8,3.1c0.6,0,1.1-0.1,1.5-0.5c0.4-0.4,0.6-0.8,0.6-1.3c0.5-4.5,0.7-6.8,1.2-11.3
					c0.1-0.6-0.1-1.1-0.4-1.5C411,186,411,186,410.9,185.9z"/>
				<path class="st0" d="M364,193.3c0-0.2-0.1-0.4-0.1-0.7C364,192.9,364,193.1,364,193.3z"/>
				<path class="st0" d="M391.8,181.1c0.1,0,0.3,0,0.4,0C392.1,181.2,392,181.1,391.8,181.1z"/>
				<path class="st0" d="M398.6,181.7c0.3,0,0.7,0.1,1,0.1C399.2,181.8,398.9,181.8,398.6,181.7z"/>
				<path class="st0" d="M389.5,181C389.5,181,389.6,181,389.5,181C389.6,181,389.5,181,389.5,181z"/>
				<path class="st0" d="M397.1,181.6c0.3,0,0.7,0.1,1,0.1C397.8,181.7,397.4,181.6,397.1,181.6z"/>
				<path class="st0" d="M395.5,181.5c0.4,0,0.8,0.1,1.2,0.1C396.4,181.5,396,181.5,395.5,181.5z"/>
				<path class="st0" d="M381.9,180.4c1.3,0.1,2.6,0.2,3.8,0.3c1.3-17,2-26.4,3.4-44.3c0-0.6-0.2-1.1-0.6-1.4
					c-0.1,0-0.1-0.1-0.2-0.1c0,0-0.1-0.1-0.1-0.1c-0.1-0.1-0.1-0.1-0.2-0.1c0,0,0-0.1-0.1-0.1c-0.1-0.1-0.1-0.1-0.2-0.1
					c0,0,0-0.1-0.1-0.1c-0.1-0.1-0.1-0.1-0.2-0.1c0,0-0.1-0.1-0.1-0.1c-0.1,0-0.1-0.1-0.2-0.1c0,0,0-0.1-0.1-0.1
					c-0.1,0-0.1-0.1-0.2-0.1c0,0,0-0.1-0.1-0.1c-0.1,0-0.1-0.1-0.2-0.1c0,0-0.1-0.1-0.1-0.1c-0.1,0-0.1-0.1-0.2-0.1
					c0,0,0-0.1-0.1-0.1c-0.1-0.1-0.1-0.1-0.2-0.1c0,0,0-0.1-0.1-0.1c-0.1,0-0.1-0.1-0.2-0.1c0,0,0-0.1-0.1-0.1
					c-0.1,0-0.1-0.1-0.2-0.1c0,0,0-0.1-0.1-0.1c-0.1,0-0.1-0.1-0.2-0.1c0,0,0-0.1-0.1-0.1c-0.1-0.1-0.1-0.1-0.2-0.1
					c0,0,0-0.1-0.1-0.1c-0.1-0.1-0.1-0.1-0.2-0.1c0.3,0.4,0.5,0.8,0.5,1.3C384,152.2,383.3,161.6,381.9,180.4z"/>
				<path class="st0" d="M404.6,182.3c0.5,0,1.1,0.1,1.6,0.2C405.7,182.4,405.1,182.4,404.6,182.3z"/>
				<path class="st0" d="M393,181.2c0.2,0,0.4,0,0.5,0C393.4,181.3,393.2,181.2,393,181.2z"/>
				<path class="st0" d="M394.3,181.3c0.2,0,0.4,0,0.6,0C394.7,181.4,394.5,181.4,394.3,181.3z"/>
				<path class="st0" d="M401.5,182c0.3,0,0.7,0.1,1.1,0.1C402.2,182.1,401.8,182,401.5,182z"/>
				<path class="st0" d="M417.1,197.9c0-0.2,0-0.4,0-0.7C417,197.4,417.1,197.6,417.1,197.9z"/>
				<path class="st0" d="M417.2,198.3c0-0.1-0.1-0.1-0.1-0.2C417.2,198.2,417.2,198.3,417.2,198.3z"/>
				<path class="st0" d="M445.2,140.9c-0.1-0.1-0.1-0.1-0.2-0.1c0,0-0.1-0.1-0.1-0.1c0,0-0.1-0.1-0.2-0.1c0,0-0.1-0.1-0.1-0.1
					c0,0-0.1-0.1-0.2-0.1c0,0-0.1-0.1-0.1-0.1c0,0-0.1-0.1-0.2-0.1c0,0-0.1-0.1-0.1-0.1c0,0-0.1-0.1-0.1-0.1c0,0-0.1-0.1-0.1-0.1
					c-0.1,0-0.1-0.1-0.2-0.1c0,0-0.1-0.1-0.1-0.1c0,0-0.1-0.1-0.2-0.1c0,0-0.1-0.1-0.1-0.1c0,0-0.1-0.1-0.2-0.1c0,0-0.1-0.1-0.1-0.1
					c-0.1,0-0.1-0.1-0.2-0.1c0,0-0.1-0.1-0.1-0.1c0,0-0.1-0.1-0.2-0.1c0,0-0.1-0.1-0.1-0.1c-0.1,0-0.1-0.1-0.2-0.1
					c0,0-0.1-0.1-0.1-0.1c-0.1,0-0.1-0.1-0.2-0.1c0,0-0.1-0.1-0.1-0.1c-0.1,0-0.1-0.1-0.2-0.1c0,0-0.1-0.1-0.1-0.1
					c-0.1,0-0.1-0.1-0.2-0.1c0,0-0.1-0.1-0.1-0.1c0.5,0.4,0.7,0.9,0.6,1.5c-3.4,23.9-5,35.9-8.3,59.9c-0.2,1.2-1,1.8-2.4,1.6
					c-5.1-0.7-8.3-1-13.4-1.6c-0.5-0.1-0.8-0.2-1.8-0.5c0,0,0,0,0,0c0,0.1,0.8,0.1,0.9,0.2c0.1,0.1,0.5,0.1,0.6,0.2
					c0.1,0.1,0.3,0.1,0.4,0.2c0.1,0.1,0.2,0.1,0.3,0.2c0.1,0.1,0.2,0.1,0.3,0.2c0.1,0.1,0.2,0.1,0.3,0.2c0.1,0.1,0.2,0.1,0.3,0.2
					c0.1,0.1,0.2,0.1,0.3,0.2c0.1,0.1,0.2,0.1,0.3,0.2c0.1,0.1,0.2,0.1,0.2,0.2c0.1,0.1,0.2,0.1,0.3,0.2c0.1,0.1,0.2,0.1,0.3,0.2
					c0.1,0.1,0.2,0.1,0.2,0.2c0.3,0.4,0.7,0.6,1.4,0.7c5.1,0.6,7.6,0.9,12.7,1.6c1.4,0.2,2.2-0.3,2.4-1.6c3.3-23.9,5-35.9,8.4-59.9
					C445.9,141.8,445.7,141.3,445.2,140.9z"/>
				<path class="st0" d="M486,155.5c0.1-0.1,0.2-0.2,0.4-0.4C486.2,155.2,486.1,155.3,486,155.5z"/>
				<path class="st0" d="M490.6,151.1c0.2-0.2,0.5-0.5,0.7-0.7C491.1,150.7,490.8,150.9,490.6,151.1z"/>
				<path class="st0" d="M489,152.6c0.2-0.2,0.4-0.4,0.6-0.5C489.4,152.3,489.2,152.5,489,152.6z"/>
				<path class="st0" d="M492.3,149.5c0.6-0.6,1.2-1.1,1.9-1.8C493.6,148.4,492.9,149,492.3,149.5z"/>
				<path class="st0" d="M470,141.8C470,141.8,470,141.8,470,141.8C470,141.8,470,141.8,470,141.8z"/>
				<path class="st0" d="M484.4,156.9c0.1-0.1,0.2-0.2,0.3-0.3C484.7,156.7,484.6,156.8,484.4,156.9z"/>
				<path class="st0" d="M479.9,161.2c0.5-0.5,1-0.9,1.5-1.4c-2.1-4.5-3.7-7.8-6.3-13.2c-0.3-0.7-0.6-1.2-1.1-1.5
					c-0.1-0.1-0.2-0.1-0.3-0.2c-0.1-0.1-0.2-0.2-0.3-0.2c-0.1-0.1-0.2-0.1-0.3-0.2c-0.1-0.1-0.2-0.1-0.3-0.2
					c-0.1-0.1-0.2-0.1-0.3-0.2c-0.1-0.1-0.2-0.1-0.2-0.2c-0.1-0.1-0.2-0.2-0.3-0.2c-0.1-0.1-0.2-0.1-0.3-0.2
					c-0.1-0.1-0.2-0.1-0.3-0.2c-0.1-0.1-0.2-0.1-0.3-0.2c-0.1-0.1-0.2-0.2-0.3-0.2c-0.1-0.1-0.2-0.1-0.3-0.2
					c-0.1-0.1-0.2-0.1-0.3-0.2c0.3,0.3,0.6,0.7,0.8,1.3C474.9,150.7,476.6,154.2,479.9,161.2z"/>
				<path class="st0" d="M460.1,203.6c-0.3,0.5-0.7,0.8-1.1,1c-0.4,0.2-0.9,0.3-1.4,0.2c-5.9-1-8.8-1.4-14.7-2.3
					c-0.3,0-0.5-0.1-0.8-0.1c-0.1,0-0.3-0.1-0.4-0.1c0,0,0,0,0,0.1c0.1,0.1,0.1,0.1,0.2,0.2c0,0,0,0,0,0.1c0.1,0.1,0.1,0.1,0.2,0.2
					c0,0,0,0,0,0.1c0.1,0.1,0.1,0.1,0.2,0.2c0,0,0,0,0,0.1c0.1,0.1,0.1,0.1,0.2,0.2c0,0,0,0,0,0.1c0.1,0.1,0.1,0.1,0.2,0.2
					c0,0,0,0,0,0.1c0.1,0.1,0.1,0.1,0.2,0.1c0,0,0,0,0,0.1c0.1,0.1,0.1,0.1,0.2,0.2c0,0,0,0,0,0c0.1,0.1,0.1,0.1,0.2,0.2
					c0,0,0,0,0,0.1c0.1,0.1,0.1,0.1,0.2,0.1c0,0,0,0,0,0.1c0.1,0.1,0.1,0.1,0.2,0.2c0,0,0,0,0,0c0.1,0.1,0.1,0.1,0.2,0.2
					c0,0,0,0,0,0.1c0.1,0.1,0.1,0.1,0.2,0.2c0,0,0,0,0,0.1c0.1,0.1,0.1,0.1,0.2,0.2c0,0,0,0,0,0.1c0.2,0.2,0.3,0.3,0.6,0.3
					c0.3,0,0.5,0.1,0.8,0.1c5.9,0.9,8.8,1.3,14.7,2.3c0.5,0.1,1,0,1.4-0.2c0.4-0.2,0.8-0.5,1.1-1c5.3-5.6,8.2-8.6,13.3-13.6
					c2,4.4,3.5,7.8,5.5,12.6c-2.7-6.3-4.4-10.2-7.6-17.1C468.8,194.5,465.9,197.5,460.1,203.6z"/>
				<path class="st0" d="M483,158.3c0,0,0.1-0.1,0.1-0.1C483.1,158.2,483,158.3,483,158.3z"/>
				<path class="st0" d="M487.4,154.1c0.2-0.1,0.3-0.3,0.5-0.5C487.8,153.8,487.6,153.9,487.4,154.1z"/>
				<path class="st0" d="M482.5,205.8c0.3,0.7,0.6,1.4,0.9,2.1C483.1,207.1,482.8,206.4,482.5,205.8z"/>
				<path class="st0" d="M517.7,153.4C517.7,153.4,517.7,153.4,517.7,153.4c-0.1-0.1-0.2-0.2-0.3-0.2c0,0-0.1,0-0.1,0
					c0-0.1-0.1-0.1-0.2-0.2c0,0-0.1,0-0.1,0c0-0.1-0.1-0.1-0.2-0.2c0,0-0.1,0-0.1,0c0-0.1-0.1-0.1-0.2-0.2c0,0-0.1,0-0.1,0
					c0-0.1-0.1-0.1-0.2-0.2c0,0-0.1,0-0.1,0c0-0.1-0.1-0.1-0.2-0.2c0,0,0,0-0.1,0c0-0.1-0.1-0.1-0.2-0.2c0,0,0,0-0.1,0
					c0-0.1-0.1-0.1-0.2-0.2c0,0-0.1,0-0.1,0c0-0.1-0.1-0.1-0.2-0.2c0,0-0.1,0-0.1,0c0-0.1-0.1-0.1-0.2-0.2c0,0-0.1,0-0.1,0
					c0-0.1-0.1-0.1-0.2-0.2c0,0-0.1,0-0.1,0c0-0.1-0.1-0.1-0.2-0.2c0,0-0.1,0-0.1,0c0-0.1-0.1-0.1-0.2-0.2c0,0-0.1,0-0.1,0
					c0-0.1-0.1-0.1-0.2-0.2c0.2,0.1,0.3,0.3,0.2,0.4c-0.1,0.3-0.3,0.7-0.7,1c-11,9.8-16.4,14.7-26.9,24.8c6,13.5,8.9,20.3,14.3,33.9
					c0.2,0.5,0.3,0.9,0.4,1.2c0.1,0.4,0.1,0.7,0,0.9c-0.1,0.4-0.4,0.6-0.9,0.5c-6.1-1.3-9.2-2-15.3-3.2c-0.5-0.1-0.9-0.3-1.2-0.7
					c0.1,0.1,0.1,0.1,0.2,0.2c0,0,0,0,0,0c0.1,0.1,0.1,0.1,0.2,0.2c0,0,0,0,0,0c0.1,0.1,0.1,0.1,0.2,0.2c0,0,0,0,0,0.1
					c0.1,0.1,0.1,0.1,0.2,0.2c0,0,0,0,0,0.1c0.1,0.1,0.1,0.1,0.2,0.2c0,0,0,0,0,0c0.1,0.1,0.1,0.1,0.2,0.2c0,0,0,0,0,0
					c0.1,0.1,0.1,0.1,0.2,0.2c0,0,0,0,0,0c0.1,0.1,0.1,0.1,0.2,0.2c0,0,0,0,0,0.1c0.1,0.1,0.1,0.1,0.2,0.2c0,0,0,0,0,0
					c0.1,0.1,0.1,0.1,0.2,0.2c0,0,0,0,0,0c0.1,0.1,0.1,0.1,0.2,0.2c0,0,0,0,0,0.1c0.1,0.1,0.1,0.1,0.2,0.2c0,0,0,0,0,0
					c0.1,0.1,0.1,0.1,0.2,0.2c0,0,0,0,0,0c0.1,0.1,0.1,0.1,0.2,0.2c0,0,0,0,0,0c0.3,0.4,0.8,0.6,1.2,0.7c6.1,1.2,9.2,1.9,15.3,3.2
					c0.5,0.1,0.8-0.1,0.9-0.5c0.1-0.2,0.1-0.5,0-0.9c-0.1-0.3-0.2-0.8-0.4-1.2c-5.4-13.6-8.3-20.4-14.3-33.9
					c10.5-10.1,15.9-15,26.9-24.8c0.4-0.3,0.7-0.7,0.7-1C518,153.7,517.9,153.6,517.7,153.4z"/>
				<path class="st0" d="M135.4,199.6c-0.7-0.6-1.5-1.3-2.1-2C133.9,198.2,134.7,198.9,135.4,199.6z"/>
				<path class="st0" d="M173.2,186.5c-0.2-0.1-0.3-0.1-0.5-0.1C172.9,186.4,173.1,186.5,173.2,186.5z"/>
				<path class="st0" d="M173.8,186.9C173.8,186.9,173.8,186.9,173.8,186.9c-0.2-0.1-0.4-0.3-0.5-0.3
					C173.4,186.6,173.6,186.7,173.8,186.9z"/>
				<path class="st0" d="M135.8,199.5c0.8,0.7,1.5,0.9,2.4,1.9c0,0,0,0,0,0C137.3,200.4,136.6,200.2,135.8,199.5z"/>
				<path class="st0" d="M152.6,191.3c0.1,0,0.2,0.1,0.3,0.1C152.8,191.4,152.7,191.4,152.6,191.3z"/>
				<path class="st0" d="M174.6,145.5c-0.1-0.1-0.2-0.2-0.3-0.2C174.4,145.4,174.5,145.4,174.6,145.5L174.6,145.5z"/>
				<path class="st0" d="M220,162.3c0.1,0.1,0.1,0.3,0.2,0.4C220.1,162.6,220.1,162.4,220,162.3z"/>
				<path class="st0" d="M222.1,134.9c-0.2-0.1-0.4-0.3-0.6-0.4C221.7,134.6,221.9,134.8,222.1,134.9z"/>
				<path class="st0" d="M233.4,190.1L233.4,190.1c0.2,0.4,0.4,0.8,0.6,1.2C233.8,190.9,233.6,190.5,233.4,190.1z"/>
				<path class="st0" d="M219.3,160.9L219.3,160.9c0,0.1,0.1,0.1,0.1,0.2C219.4,161,219.3,161,219.3,160.9z"/>
				<path class="st0" d="M223.7,170.1c0,0.1,0.1,0.2,0.1,0.2C223.8,170.2,223.8,170.2,223.7,170.1z"/>
				<path class="st0" d="M224.5,171.8c0,0.1,0.1,0.1,0.1,0.2C224.6,171.9,224.6,171.9,224.5,171.8z"/>
				<path class="st0" d="M224,174c-0.3,0-0.6,0.1-0.9,0.1C223.3,174,223.6,174,224,174z"/>
				<path class="st0" d="M220.7,163.7c0.1,0.1,0.1,0.3,0.2,0.4C220.8,163.9,220.7,163.8,220.7,163.7z"/>
				<path class="st0" d="M222.6,174.1c-0.6,0.1-1.2,0.1-1.8,0.2C221.4,174.2,222,174.2,222.6,174.1z"/>
				<path class="st0" d="M219.3,174.5c-1,0.1-2,0.2-3,0.3l0,0C217.3,174.7,218.3,174.6,219.3,174.5z"/>
				<path class="st0" d="M222.9,168.3c0.1,0.1,0.1,0.2,0.2,0.3C223,168.5,222.9,168.4,222.9,168.3z"/>
				<path class="st0" d="M220.5,174.3c-0.3,0-0.6,0.1-0.9,0.1C220,174.4,220.2,174.4,220.5,174.3z"/>
				<path class="st0" d="M222.2,166.8c0,0.1,0.1,0.2,0.1,0.3C222.2,167,222.2,166.9,222.2,166.8z"/>
				<path class="st0" d="M261.5,152.6c0.9,14.5,1.5,23.8,2.5,40.2C263,176.5,262.4,167.2,261.5,152.6z"/>
				<path class="st0" d="M338.2,157.5c0.6,0,1.2,0,1.8,0.1C339.4,157.6,338.8,157.5,338.2,157.5z"/>
				<path class="st0" d="M336.3,157.5c0.6,0,1.2,0,1.8,0C337.4,157.5,336.9,157.5,336.3,157.5z"/>
				<path class="st0" d="M342.4,157.6c0.6,0,1.3,0,1.9,0.1C343.6,157.7,343,157.7,342.4,157.6z"/>
				<path class="st0" d="M309.3,192.3c0-0.1,0-0.1-0.1-0.2C309.2,192.2,309.2,192.2,309.3,192.3z"/>
				<path class="st0" d="M356.9,130.5L356.9,130.5C356.9,130.5,356.9,130.5,356.9,130.5C356.9,130.5,356.9,130.5,356.9,130.5z"/>
				<path class="st0" d="M340.1,157.6c0.6,0,1.2,0,1.8,0C341.3,157.6,340.7,157.6,340.1,157.6z"/>
				<path class="st0" d="M334.3,157.4c0.6,0,1.2,0,1.8,0C335.5,157.5,334.9,157.5,334.3,157.4z"/>
				<path class="st0" d="M344.6,157.7c0.7,0,1.4,0.1,2.2,0.1C346.1,157.8,345.3,157.7,344.6,157.7z"/>
				<path class="st0" d="M332.4,157.4c0.6,0,1.1,0,1.7,0C333.5,157.4,333,157.4,332.4,157.4z"/>
				<path class="st0" d="M330.4,157.4c0.6,0,1.2,0,1.7,0C331.5,157.4,331,157.4,330.4,157.4z"/>
				<path class="st0" d="M309.4,192.5c0.1,0.2,0.2,0.3,0.4,0.5C309.6,192.8,309.5,192.7,309.4,192.5z"/>
				<path class="st0" d="M390.9,181c0.3,0,0.6,0.1,1,0.1C391.5,181.1,391.2,181.1,390.9,181z"/>
				<path class="st0" d="M364.1,193.6c0-0.1,0-0.2-0.1-0.3C364.1,193.4,364.1,193.5,364.1,193.6z"/>
				<path class="st0" d="M389.6,180.9c0.4,0,0.7,0.1,1.1,0.1C390.3,181,390,181,389.6,180.9z"/>
				<path class="st0" d="M364.2,193.8c0.1,0.2,0.2,0.3,0.4,0.5c0,0,0,0,0,0C364.4,194.1,364.3,194,364.2,193.8z"/>
				<path class="st0" d="M404,182.3c0.2,0,0.4,0,0.6,0.1C404.4,182.3,404.2,182.3,404,182.3z"/>
				<path class="st0" d="M402.5,182.1c0.1,0,0.3,0,0.4,0C402.8,182.1,402.7,182.1,402.5,182.1z"/>
				<path class="st0" d="M400.9,182c0.2,0,0.3,0,0.5,0C401.3,182,401.1,182,400.9,182z"/>
				<path class="st0" d="M392.2,181.2c0.3,0,0.5,0,0.8,0.1C392.8,181.2,392.5,181.2,392.2,181.2z"/>
				<path class="st0" d="M384.9,132.1C384.9,132.1,384.9,132.1,384.9,132.1C384.9,132,384.9,132,384.9,132.1
					C384.9,132,384.9,132,384.9,132.1z"/>
				<path class="st0" d="M389.5,180.9c-1.2-0.1-2.5-0.2-3.8-0.3l0,0C387,180.7,388.3,180.8,389.5,180.9z"/>
				<path class="st0" d="M399.6,181.8c0.1,0,0.2,0,0.4,0C399.8,181.9,399.7,181.8,399.6,181.8z"/>
				<path class="st0" d="M398.1,181.7c0.1,0,0.3,0,0.5,0C398.4,181.7,398.3,181.7,398.1,181.7z"/>
				<path class="st0" d="M393.5,181.3c0.2,0,0.5,0,0.7,0.1C394,181.3,393.8,181.3,393.5,181.3z"/>
				<path class="st0" d="M394.9,181.4c0.2,0,0.5,0,0.7,0.1C395.3,181.4,395.1,181.4,394.9,181.4z"/>
				<path class="st0" d="M396.8,181.6c0.1,0,0.2,0,0.3,0C397,181.6,396.9,181.6,396.8,181.6z"/>
				<path class="st0" d="M417.2,198.1c0-0.1,0-0.2-0.1-0.3C417.1,197.9,417.1,198,417.2,198.1z"/>
				<path class="st0" d="M417.6,198.8c-0.2-0.1-0.3-0.3-0.4-0.5C417.3,198.5,417.5,198.7,417.6,198.8z"/>
				<path class="st0" d="M486.3,155.1c0.4-0.4,0.7-0.7,1.1-1C487.1,154.4,486.7,154.8,486.3,155.1z"/>
				<path class="st0" d="M483.1,158.2c0.5-0.4,0.9-0.9,1.3-1.3C484,157.3,483.6,157.7,483.1,158.2z"/>
				<path class="st0" d="M484.8,156.6c0.4-0.4,0.8-0.8,1.2-1.1C485.6,155.8,485.2,156.2,484.8,156.6z"/>
				<path class="st0" d="M483,158.3c-0.5,0.5-1,1-1.6,1.5l0,0C481.9,159.3,482.4,158.8,483,158.3z"/>
				<path class="st0" d="M487.9,153.6c0.3-0.3,0.7-0.6,1-1C488.6,153,488.3,153.3,487.9,153.6z"/>
				<path class="st0" d="M470,141.8c-0.3-0.1-0.5-0.2-0.9-0.3C469.4,141.6,469.7,141.7,470,141.8z"/>
				<path class="st0" d="M482.4,205.6c0,0.1,0.1,0.1,0.1,0.2C482.5,205.7,482.4,205.6,482.4,205.6z"/>
				<path class="st0" d="M441.5,202.1c0.1,0.1,0.1,0.1,0.2,0.1l0,0C441.6,202.2,441.5,202.2,441.5,202.1z"/>
				<path class="st0" d="M470.7,142.3c-0.2-0.2-0.4-0.4-0.7-0.5C470.2,142,470.4,142.1,470.7,142.3
					C470.7,142.3,470.7,142.3,470.7,142.3z"/>
				<path class="st0" d="M489.6,152.1c0.3-0.3,0.7-0.6,1-1C490.2,151.5,489.9,151.8,489.6,152.1z"/>
				<path class="st0" d="M491.3,150.5c0.3-0.3,0.7-0.6,1-0.9C492,149.8,491.7,150.1,491.3,150.5z"/>
			</g>
			<g>
				<g>
					<path class="st11" d="M172.4,143.8c0.5,0.2,1,0.5,1.3,0.9c0.3,0.4,0.4,1,0.1,1.6c-2.4,4.6-3.7,6.9-6,11.5
						c-0.2,0.5-0.6,0.9-0.9,1c-0.4,0.1-0.9,0.1-1.4-0.1c-1.6-0.7-3.4-1.3-5.3-1.6c-1.9-0.3-3.8-0.2-5.8,0.2
						c-2.5,0.4-4.7,1.3-6.6,2.6c-1.9,1.3-3.5,2.8-4.7,4.6c-1.2,1.8-2,3.8-2.4,6c-0.4,2.2-0.4,4.5,0.1,6.8c0.5,2.3,1.3,4.4,2.6,6.3
						c1.2,1.9,2.7,3.4,4.5,4.6c1.8,1.2,3.7,2.1,5.9,2.6c2.2,0.5,4.5,0.5,6.8,0.1c1.9-0.4,3.7-1,5.4-1.9c1.7-0.9,3.1-2.1,4.4-3.3
						c0.4-0.4,0.9-0.6,1.3-0.6c0.4,0,0.8,0.2,1.2,0.6c3.7,3.7,5.6,5.6,9.2,9.3c0.4,0.6,0.5,1.1,0.4,1.6c-0.2,0.5-0.5,0.9-0.9,1.2
						c-2.4,2.1-5.1,4.1-8.1,5.6c-3,1.5-6.1,2.6-9.6,3.2c-3,0.5-6,0.7-8.9,0.5c-2.9-0.2-5.8-0.8-8.5-1.7c-2.7-0.9-5.3-2.2-7.7-3.7
						c-2.4-1.5-4.6-3.3-6.6-5.4c-2-2.1-3.6-4.4-5.1-7c-1.4-2.6-2.4-5.4-3.1-8.3c-0.7-3-0.9-5.9-0.7-8.9c0.2-2.9,0.8-5.7,1.7-8.5
						c1-2.7,2.3-5.3,4-7.7c1.7-2.4,3.7-4.6,6-6.5c2.3-1.9,4.9-3.6,7.7-4.9c2.8-1.4,5.9-2.3,9.2-2.9c3.7-0.7,7.3-0.8,10.7-0.4
						C165.9,141.6,169.3,142.6,172.4,143.8z"/>
					<path class="st11" d="M204.5,136.3c0-0.2,0.1-0.4,0.2-0.6c0.1-0.2,0.3-0.4,0.6-0.6c0.2-0.2,0.5-0.4,0.7-0.5
						c0.3-0.1,0.5-0.2,0.8-0.2c4.8-0.6,7.2-0.8,12-1.4c0.5-0.1,1,0,1.4,0.3c0.4,0.3,0.7,0.5,0.9,0.7c0.6,0.9,0.9,1.4,1.4,2.3
						c12.2,22.3,18,33.6,29,56.2c0.3,0.6,0.3,1,0,1.4c-0.3,0.4-0.8,0.6-1.6,0.7c-5,0.4-7.5,0.6-12.5,1.1c-0.7,0.1-1.2,0-1.6-0.2
						c-0.4-0.2-0.7-0.6-1-1.1c-0.7-1.4-1.4-2.8-2.1-4.2c-0.7-1.4-1.4-2.8-2.1-4.2c-9.3,0.9-14,1.5-23.3,2.6
						c-0.4,1.5-0.7,3.1-1.1,4.6c-0.4,1.5-0.8,3.1-1.1,4.6c-0.2,1.1-0.9,1.7-2,1.9c-5.1,0.7-7.7,1-12.8,1.8c-0.5,0.1-1,0-1.4-0.2
						c-0.4-0.2-0.5-0.6-0.4-1.3C194.2,174.4,197.4,161.7,204.5,136.3z M215.1,153.7c-0.4,1.5-0.8,3.2-1.2,4.9
						c-0.4,1.8-0.8,3.5-1.1,5.3c-0.4,1.8-0.7,3.5-1.1,5.3c-0.4,1.7-0.8,3.4-1.2,4.9c5.5-0.7,8.2-1,13.7-1.5
						C220.6,165,218.8,161.2,215.1,153.7z"/>
					<path class="st11" d="M240.7,132.8c-0.1-0.6,0.1-1,0.5-1.4c0.4-0.4,0.9-0.6,1.5-0.6c20.2-1.6,30.3-2.1,50.5-2.6
						c0.6,0,1.1,0.1,1.5,0.4c0.4,0.3,0.7,0.8,0.8,1.4c0.1,4.3,0.2,6.4,0.3,10.7c0,0.5-0.2,1-0.5,1.5c-0.4,0.5-0.9,0.7-1.6,0.8
						c-6.4,0.2-9.6,0.3-15.9,0.5c0.8,18.9,1.2,28.4,2.1,47.3c0,0.5-0.1,1-0.5,1.4c-0.4,0.4-0.9,0.7-1.5,0.7
						c-5.1,0.2-7.7,0.4-12.8,0.7c-0.5,0-1-0.1-1.4-0.5c-0.5-0.4-0.7-0.8-0.7-1.4c-1.2-18.9-1.8-28.4-3-47.3
						c-6.4,0.4-9.5,0.6-15.9,1.1c-0.6,0-1.1-0.1-1.6-0.4c-0.4-0.3-0.7-0.9-0.8-1.6C241.2,139.2,241.1,137.1,240.7,132.8z"/>
					<path class="st11" d="M307.3,129.8c0-0.6,0.2-1.1,0.5-1.4c0.4-0.4,0.8-0.5,1.3-0.6c18-0.1,27,0,45,0.7c0.7,0,1.2,0.2,1.6,0.6
						c0.3,0.4,0.5,0.9,0.5,1.5c-0.2,4.3-0.3,6.4-0.5,10.7c0,0.5-0.2,1-0.6,1.4c-0.4,0.4-0.9,0.6-1.6,0.6
						c-11.2-0.4-16.9-0.6-28.1-0.7c-0.1,5.4-0.1,8.1-0.1,13.4c8.2,0.1,12.3,0.2,20.4,0.4c0.6,0,1.1,0.2,1.4,0.5
						c0.4,0.3,0.6,0.8,0.5,1.5c-0.1,4.1-0.2,6.2-0.4,10.3c0,0.5-0.2,0.9-0.6,1.4c-0.4,0.4-0.8,0.6-1.4,0.6
						c-8.1-0.3-12.1-0.3-20.2-0.4c-0.1,7.9-0.1,11.9-0.2,19.8c0,1.2-0.7,1.9-2,1.8c-5.3,0-8,0-13.3,0c-1.1-0.1-1.6-0.7-1.6-1.8
						C307.6,166.1,307.5,154,307.3,129.8z"/>
					<path class="st11" d="M366.1,131c0-0.5,0.2-1,0.6-1.3c0.4-0.4,0.9-0.5,1.6-0.5c5.6,0.3,8.3,0.5,13.9,0.9c0.5,0,1,0.2,1.4,0.6
						c0.4,0.4,0.6,0.9,0.6,1.4c-1.4,18.8-2.1,28.2-3.5,46.9c9.8,0.7,14.6,1.1,24.4,2.1c0.5,0.1,1,0.3,1.3,0.7
						c0.3,0.4,0.5,0.9,0.4,1.5c-0.5,4.5-0.7,6.8-1.2,11.3c-0.1,0.5-0.3,0.9-0.6,1.3c-0.4,0.4-0.9,0.5-1.5,0.5
						c-15.5-1.6-23.3-2.2-38.9-3.1c-1.3-0.1-1.9-0.7-1.8-2C364.1,167.2,364.7,155.2,366.1,131z"/>
					<path class="st11" d="M423,135.9c0.1-0.5,0.3-0.9,0.7-1.3c0.4-0.3,0.9-0.5,1.6-0.4c5.5,0.7,8.2,1,13.7,1.7
						c0.5,0.1,0.9,0.3,1.4,0.7c0.5,0.4,0.7,0.9,0.6,1.5c-3.4,23.9-5,35.9-8.3,59.9c-0.2,1.3-1,1.8-2.4,1.6c-5.1-0.7-7.6-1-12.7-1.6
						c-1.3-0.1-1.8-0.8-1.7-2.1C418.7,171.9,420.1,159.9,423,135.9z"/>
					<path class="st11" d="M440.2,199.9c0.3-0.4,0.6-0.8,0.9-1.2c0.3-0.4,0.7-0.8,1-1.2c9.5-10.3,14.4-15.5,24.5-25.5
						c-2.6-5.5-5.2-10.9-7.8-16.3c-2.6-5.4-5.3-11-8.2-16.2c-0.1-0.3-0.3-0.5-0.3-0.7c-0.1-0.2-0.2-0.5-0.1-0.7
						c0-0.2,0.3-0.3,0.6-0.2c0.3,0.1,0.6,0,0.9-0.1c6.5,1,9.7,1.5,16.2,2.5c1.1,0.2,1.9,0.9,2.4,2.1c3.4,7,5.1,10.6,8.4,17.6
						c5.7-5.4,8.5-8.1,14.4-13.5c0.9-0.9,1.9-1.3,3-1.1c5.8,1.2,8.7,1.8,14.5,3c0.2,0.1,0.5,0.1,0.9,0.2c0.3,0.1,0.6,0.2,0.9,0.2
						c0.3,0.1,0.5,0.2,0.7,0.3c0.2,0.1,0.3,0.3,0.2,0.5c-0.1,0.3-0.3,0.7-0.7,1c-11,9.8-16.4,14.7-26.9,24.8
						c6,13.5,8.9,20.3,14.3,33.9c0.2,0.5,0.3,0.9,0.4,1.2c0.1,0.4,0.1,0.7,0,0.9c-0.1,0.4-0.4,0.6-0.9,0.5c-6.1-1.3-9.2-2-15.3-3.2
						c-0.5-0.1-0.9-0.3-1.2-0.7c-0.3-0.4-0.6-0.8-0.7-1.3c-3.3-7.8-5-11.6-8.6-19.4c-6,6-8.9,9-14.7,15.1c-0.3,0.4-0.7,0.8-1.1,1
						c-0.5,0.2-0.9,0.3-1.4,0.2c-5.9-1-8.8-1.4-14.7-2.3c-0.3-0.1-0.5-0.1-0.8-0.1c-0.2,0-0.4-0.1-0.6-0.3c-0.2-0.2-0.2-0.4-0.2-0.6
						C440.1,200.1,440.2,200,440.2,199.9z"/>
				</g>
			</g>
			<g class="st9">
				<g>
					<path d="M172.4,143.8c0.5,0.2,1,0.5,1.3,0.9c0.3,0.4,0.4,1,0.1,1.6c-2.4,4.6-3.7,6.9-6,11.5c-0.2,0.5-0.6,0.9-0.9,1
						c-0.4,0.1-0.9,0.1-1.4-0.1c-1.6-0.7-3.4-1.3-5.3-1.6c-1.9-0.3-3.8-0.2-5.8,0.2c-2.5,0.4-4.7,1.3-6.6,2.6
						c-1.9,1.3-3.5,2.8-4.7,4.6c-1.2,1.8-2,3.8-2.4,6c-0.4,2.2-0.4,4.5,0.1,6.8c0.5,2.3,1.3,4.4,2.6,6.3c1.2,1.9,2.7,3.4,4.5,4.6
						c1.8,1.2,3.7,2.1,5.9,2.6c2.2,0.5,4.5,0.5,6.8,0.1c1.9-0.4,3.7-1,5.4-1.9c1.7-0.9,3.1-2.1,4.4-3.3c0.4-0.4,0.9-0.6,1.3-0.6
						c0.4,0,0.8,0.2,1.2,0.6c3.7,3.7,5.6,5.6,9.2,9.3c0.4,0.6,0.5,1.1,0.4,1.6c-0.2,0.5-0.5,0.9-0.9,1.2c-2.4,2.1-5.1,4.1-8.1,5.6
						c-3,1.5-6.1,2.6-9.6,3.2c-3,0.5-6,0.7-8.9,0.5c-2.9-0.2-5.8-0.8-8.5-1.7c-2.7-0.9-5.3-2.2-7.7-3.7c-2.4-1.5-4.6-3.3-6.6-5.4
						c-2-2.1-3.6-4.4-5.1-7c-1.4-2.6-2.4-5.4-3.1-8.3c-0.7-3-0.9-5.9-0.7-8.9c0.2-2.9,0.8-5.7,1.7-8.5c1-2.7,2.3-5.3,4-7.7
						c1.7-2.4,3.7-4.6,6-6.5c2.3-1.9,4.9-3.6,7.7-4.9c2.8-1.4,5.9-2.3,9.2-2.9c3.7-0.7,7.3-0.8,10.7-0.4
						C165.9,141.6,169.3,142.6,172.4,143.8z"/>
					<path d="M204.5,136.3c0-0.2,0.1-0.4,0.2-0.6c0.1-0.2,0.3-0.4,0.6-0.6c0.2-0.2,0.5-0.4,0.7-0.5c0.3-0.1,0.5-0.2,0.8-0.2
						c4.8-0.6,7.2-0.8,12-1.4c0.5-0.1,1,0,1.4,0.3c0.4,0.3,0.7,0.5,0.9,0.7c0.6,0.9,0.9,1.4,1.4,2.3c12.2,22.3,18,33.6,29,56.2
						c0.3,0.6,0.3,1,0,1.4c-0.3,0.4-0.8,0.6-1.6,0.7c-5,0.4-7.5,0.6-12.5,1.1c-0.7,0.1-1.2,0-1.6-0.2c-0.4-0.2-0.7-0.6-1-1.1
						c-0.7-1.4-1.4-2.8-2.1-4.2c-0.7-1.4-1.4-2.8-2.1-4.2c-9.3,0.9-14,1.5-23.3,2.6c-0.4,1.5-0.7,3.1-1.1,4.6
						c-0.4,1.5-0.8,3.1-1.1,4.6c-0.2,1.1-0.9,1.7-2,1.9c-5.1,0.7-7.7,1-12.8,1.8c-0.5,0.1-1,0-1.4-0.2c-0.4-0.2-0.5-0.6-0.4-1.3
						C194.2,174.4,197.4,161.7,204.5,136.3z M215.1,153.7c-0.4,1.5-0.8,3.2-1.2,4.9c-0.4,1.8-0.8,3.5-1.1,5.3
						c-0.4,1.8-0.7,3.5-1.1,5.3c-0.4,1.7-0.8,3.4-1.2,4.9c5.5-0.7,8.2-1,13.7-1.5C220.6,165,218.8,161.2,215.1,153.7z"/>
					<path d="M240.7,132.8c-0.1-0.6,0.1-1,0.5-1.4c0.4-0.4,0.9-0.6,1.5-0.6c20.2-1.6,30.3-2.1,50.5-2.6c0.6,0,1.1,0.1,1.5,0.4
						c0.4,0.3,0.7,0.8,0.8,1.4c0.1,4.3,0.2,6.4,0.3,10.7c0,0.5-0.2,1-0.5,1.5c-0.4,0.5-0.9,0.7-1.6,0.8c-6.4,0.2-9.6,0.3-15.9,0.5
						c0.8,18.9,1.2,28.4,2.1,47.3c0,0.5-0.1,1-0.5,1.4c-0.4,0.4-0.9,0.7-1.5,0.7c-5.1,0.2-7.7,0.4-12.8,0.7c-0.5,0-1-0.1-1.4-0.5
						c-0.5-0.4-0.7-0.8-0.7-1.4c-1.2-18.9-1.8-28.4-3-47.3c-6.4,0.4-9.5,0.6-15.9,1.1c-0.6,0-1.1-0.1-1.6-0.4
						c-0.4-0.3-0.7-0.9-0.8-1.6C241.2,139.2,241.1,137.1,240.7,132.8z"/>
					<path d="M307.3,129.8c0-0.6,0.2-1.1,0.5-1.4c0.4-0.4,0.8-0.5,1.3-0.6c18-0.1,27,0,45,0.7c0.7,0,1.2,0.2,1.6,0.6
						c0.3,0.4,0.5,0.9,0.5,1.5c-0.2,4.3-0.3,6.4-0.5,10.7c0,0.5-0.2,1-0.6,1.4c-0.4,0.4-0.9,0.6-1.6,0.6
						c-11.2-0.4-16.9-0.6-28.1-0.7c-0.1,5.4-0.1,8.1-0.1,13.4c8.2,0.1,12.3,0.2,20.4,0.4c0.6,0,1.1,0.2,1.4,0.5
						c0.4,0.3,0.6,0.8,0.5,1.5c-0.1,4.1-0.2,6.2-0.4,10.3c0,0.5-0.2,0.9-0.6,1.4c-0.4,0.4-0.8,0.6-1.4,0.6
						c-8.1-0.3-12.1-0.3-20.2-0.4c-0.1,7.9-0.1,11.9-0.2,19.8c0,1.2-0.7,1.9-2,1.8c-5.3,0-8,0-13.3,0c-1.1-0.1-1.6-0.7-1.6-1.8
						C307.6,166.1,307.5,154,307.3,129.8z"/>
					<path d="M366.1,131c0-0.5,0.2-1,0.6-1.3c0.4-0.4,0.9-0.5,1.6-0.5c5.6,0.3,8.3,0.5,13.9,0.9c0.5,0,1,0.2,1.4,0.6
						c0.4,0.4,0.6,0.9,0.6,1.4c-1.4,18.8-2.1,28.2-3.5,46.9c9.8,0.7,14.6,1.1,24.4,2.1c0.5,0.1,1,0.3,1.3,0.7
						c0.3,0.4,0.5,0.9,0.4,1.5c-0.5,4.5-0.7,6.8-1.2,11.3c-0.1,0.5-0.3,0.9-0.6,1.3c-0.4,0.4-0.9,0.5-1.5,0.5
						c-15.5-1.6-23.3-2.2-38.9-3.1c-1.3-0.1-1.9-0.7-1.8-2C364.1,167.2,364.7,155.2,366.1,131z"/>
					<path d="M423,135.9c0.1-0.5,0.3-0.9,0.7-1.3c0.4-0.3,0.9-0.5,1.6-0.4c5.5,0.7,8.2,1,13.7,1.7c0.5,0.1,0.9,0.3,1.4,0.7
						c0.5,0.4,0.7,0.9,0.6,1.5c-3.4,23.9-5,35.9-8.3,59.9c-0.2,1.3-1,1.8-2.4,1.6c-5.1-0.7-7.6-1-12.7-1.6c-1.3-0.1-1.8-0.8-1.7-2.1
						C418.7,171.9,420.1,159.9,423,135.9z"/>
					<path d="M440.2,199.9c0.3-0.4,0.6-0.8,0.9-1.2c0.3-0.4,0.7-0.8,1-1.2c9.5-10.3,14.4-15.5,24.5-25.5c-2.6-5.5-5.2-10.9-7.8-16.3
						c-2.6-5.4-5.3-11-8.2-16.2c-0.1-0.3-0.3-0.5-0.3-0.7c-0.1-0.2-0.2-0.5-0.1-0.7c0-0.2,0.3-0.3,0.6-0.2c0.3,0.1,0.6,0,0.9-0.1
						c6.5,1,9.7,1.5,16.2,2.5c1.1,0.2,1.9,0.9,2.4,2.1c3.4,7,5.1,10.6,8.4,17.6c5.7-5.4,8.5-8.1,14.4-13.5c0.9-0.9,1.9-1.3,3-1.1
						c5.8,1.2,8.7,1.8,14.5,3c0.2,0.1,0.5,0.1,0.9,0.2c0.3,0.1,0.6,0.2,0.9,0.2c0.3,0.1,0.5,0.2,0.7,0.3c0.2,0.1,0.3,0.3,0.2,0.5
						c-0.1,0.3-0.3,0.7-0.7,1c-11,9.8-16.4,14.7-26.9,24.8c6,13.5,8.9,20.3,14.3,33.9c0.2,0.5,0.3,0.9,0.4,1.2
						c0.1,0.4,0.1,0.7,0,0.9c-0.1,0.4-0.4,0.6-0.9,0.5c-6.1-1.3-9.2-2-15.3-3.2c-0.5-0.1-0.9-0.3-1.2-0.7c-0.3-0.4-0.6-0.8-0.7-1.3
						c-3.3-7.8-5-11.6-8.6-19.4c-6,6-8.9,9-14.7,15.1c-0.3,0.4-0.7,0.8-1.1,1c-0.5,0.2-0.9,0.3-1.4,0.2c-5.9-1-8.8-1.4-14.7-2.3
						c-0.3-0.1-0.5-0.1-0.8-0.1c-0.2,0-0.4-0.1-0.6-0.3c-0.2-0.2-0.2-0.4-0.2-0.6C440.1,200.1,440.2,200,440.2,199.9z"/>
				</g>
			</g>
		</g>
	</g>
</g>
</svg>
