<?xml version="1.0" encoding="utf-8"?>
<!-- Generator: Adobe Illustrator 16.0.0, SVG Export Plug-In . SVG Version: 6.00 Build 0)  -->
<!DOCTYPE svg PUBLIC "-//W3C//DTD SVG 1.1//EN" "http://www.w3.org/Graphics/SVG/1.1/DTD/svg11.dtd">
<svg version="1.1" id="Layer_1" xmlns="http://www.w3.org/2000/svg" xmlns:xlink="http://www.w3.org/1999/xlink" x="0px" y="0px"
	 width="353.3px" height="79.7px" viewBox="0 0 353.3 79.7" style="enable-background:new 0 0 353.3 79.7;" xml:space="preserve">
<style type="text/css">
<![CDATA[
	.st0{fill:#121C20;}
	.st1{fill:none;stroke:#000000;stroke-width:0.5225;stroke-linecap:round;stroke-miterlimit:10;}
	.st2{fill:none;stroke:#D69F5A;stroke-width:0.2613;stroke-linecap:round;stroke-miterlimit:10;}
	.st3{fill:none;stroke:#D69F5A;stroke-width:0.1959;stroke-linecap:round;stroke-linejoin:round;stroke-miterlimit:10;}
	.st4{fill:none;stroke:#A30A24;stroke-width:2.0901;stroke-linecap:round;stroke-miterlimit:10;}
	.st5{fill:#F4AC0C;}
	.st6{fill:#F4F1EF;}
	.st7{fill:#F7F4F2;}
	.st8{fill:#FCFCFC;}
	.st9{fill:#FFFFFF;stroke:#000000;stroke-width:1.5676;stroke-linecap:round;stroke-miterlimit:10;}
	.st10{opacity:0.1;}
	.st11{fill:#FFC943;}
	.st12{fill:#FFFFFF;}
	.st13{fill:#D17D43;}
	.st14{fill:#D69F5A;}
	.st15{fill:#A30A24;}
]]>
</style>
<g>
	<g>
		<g>
			<path class="st0" d="M39.9,21c-1.8,3.1-2.6,4.6-4.3,7.7c-0.2,0.4-0.4,0.6-0.6,0.7c-0.3,0.1-0.6,0-1-0.1c-1.1-0.5-2.3-1-3.6-1.2
				c-1.3-0.2-2.6-0.2-3.9,0c-1.7,0.2-3.2,0.8-4.5,1.6c-1.3,0.8-2.4,1.8-3.3,3c-0.9,1.2-1.5,2.6-1.8,4c-0.3,1.5-0.4,3-0.1,4.6
				c0.3,1.6,0.8,3,1.6,4.3c0.8,1.3,1.8,2.4,2.9,3.3c0.7,0.6,1.5,1,2.3,1.4c-0.4-0.2-0.8-0.4-1.2-0.6c-0.6-0.6-1.1-1.3-1.6-2.1
				c-0.8-1.3-1.3-2.8-1.6-4.3c-0.3-1.6-0.2-3.1,0.1-4.6c0.3-1.5,1-2.8,1.8-4c0.9-1.2,2-2.2,3.3-3c1.3-0.8,2.8-1.3,4.5-1.6
				c1.4-0.2,2.7-0.2,3.9,0c1.3,0.2,2.5,0.7,3.6,1.2c0.4,0.2,0.7,0.2,1,0.1c0.2-0.1,0.5-0.3,0.6-0.7c1.7-3.1,2.6-4.6,4.3-7.7
				c0.2-0.5,0.2-0.8,0-1.1c-0.1-0.2-0.3-0.3-0.5-0.4c-0.1,0-0.1-0.1-0.2-0.1c-0.1,0-0.1-0.1-0.2-0.1c-0.1,0-0.1-0.1-0.2-0.1
				c-0.1,0-0.1-0.1-0.2-0.1c-0.1,0-0.1-0.1-0.2-0.1c-0.1,0-0.1-0.1-0.2-0.1c-0.1,0-0.1-0.1-0.2-0.1c-0.1,0-0.1-0.1-0.2-0.1
				c-0.1,0-0.1-0.1-0.2-0.1c-0.1,0-0.1-0.1-0.2-0.1c-0.1,0-0.1-0.1-0.2-0.1c-0.1,0-0.1-0.1-0.2-0.1c-0.1,0-0.1-0.1-0.2-0.1
				c0.1,0.1,0.2,0.2,0.3,0.3C40.1,20.2,40.1,20.6,39.9,21z"/>
			<path class="st0" d="M23.8,50.4c0.4,0.2,0.9,0.3,1.4,0.5C24.7,50.7,24.2,50.6,23.8,50.4z"/>
			<path class="st0" d="M40.6,49.9c-0.1-0.1-0.2-0.2-0.3-0.2c-0.1-0.1-0.1-0.1-0.2-0.1c-0.1-0.1-0.1-0.1-0.2-0.1
				c-0.1-0.1-0.1-0.1-0.2-0.1c-0.1-0.1-0.1-0.1-0.2-0.1c-0.1-0.1-0.1-0.1-0.2-0.1c-0.1-0.1-0.1-0.1-0.2-0.1
				c-0.1-0.1-0.1-0.1-0.2-0.1c-0.1-0.1-0.1-0.1-0.2-0.1c-0.1-0.1-0.1-0.1-0.2-0.1c-0.1-0.1-0.1-0.1-0.2-0.1
				c-0.1-0.1-0.1-0.1-0.2-0.1C38.3,48,38.3,48,38.2,48c-0.1-0.1-0.1-0.1-0.2-0.1c0,0,0.1,0.1,0.1,0.1c2.4,2.6,3.6,3.9,6,6.6
				c0.3,0.4,0.3,0.8,0.2,1.1c-0.1,0.3-0.4,0.6-0.7,0.8c-1.7,1.4-3.6,2.7-5.6,3.6c-2,1-4.2,1.6-6.6,1.9c-2.1,0.3-4.1,0.3-6.1,0.1
				c-2-0.2-3.9-0.7-5.7-1.4s-3.5-1.6-5.1-2.7c-0.4-0.3-0.7-0.5-1.1-0.8c0.1,0,0.1,0.1,0.2,0.1c0.1,0,0.1,0.1,0.2,0.1
				c0.1,0,0.1,0.1,0.2,0.1c0.1,0,0.1,0.1,0.2,0.1c0.1,0,0.1,0.1,0.2,0.1c0.1,0,0.1,0.1,0.2,0.1s0.1,0.1,0.2,0.1s0.1,0.1,0.2,0.1
				c0.1,0,0.1,0.1,0.2,0.1s0.1,0.1,0.2,0.1c0.1,0,0.1,0.1,0.2,0.1s0.1,0.1,0.2,0.1c0.1,0,0.1,0.1,0.2,0.1c0.4,0.3,0.8,0.6,1.3,1
				c1.6,1.1,3.3,2,5.1,2.7c1.8,0.7,3.7,1.2,5.7,1.4c2,0.2,4,0.2,6.1-0.1c2.4-0.3,4.6-1,6.6-1.9c2-1,3.9-2.3,5.6-3.6
				c0.3-0.2,0.5-0.5,0.7-0.8c0.1-0.3,0-0.7-0.2-1.1C44.2,53.8,43,52.5,40.6,49.9z"/>
			<path class="st0" d="M39.4,19.4c-0.1-0.1-0.2-0.2-0.4-0.2C39.1,19.3,39.2,19.4,39.4,19.4z"/>
			<path class="st0" d="M11.9,55.7c-0.1-0.1-0.2-0.2-0.3-0.3C11.8,55.5,11.8,55.6,11.9,55.7z"/>
			<path class="st0" d="M37.7,47.6C37.7,47.6,37.7,47.6,37.7,47.6C37.7,47.6,37.7,47.6,37.7,47.6z"/>
			<path class="st0" d="M70.3,33.2c0.3,0.6,0.6,1.2,0.8,1.9C70.9,34.4,70.6,33.8,70.3,33.2z"/>
			<path class="st0" d="M61.6,50.5c-0.3,1-0.6,2.1-0.8,3.1c-0.3,1-0.6,2.1-0.8,3.1c-0.2,0.7-0.6,1.2-1.4,1.2c-3.5,0.4-5.2,0.6-8.7,1
				c-0.4,0-0.7,0-1-0.2c0,0,0,0,0,0c0,0,0.1,0.1,0.1,0.1c0,0,0,0,0,0c0,0,0.1,0.1,0.1,0.1c0,0,0,0,0,0c0,0,0.1,0.1,0.1,0.1
				c0,0,0,0,0,0c0,0,0.1,0.1,0.1,0.1c0,0,0,0,0,0c0,0.1,0.1,0.1,0.1,0.1c0,0,0,0,0,0c0,0,0.1,0.1,0.1,0.1c0,0,0,0,0,0
				c0,0,0.1,0.1,0.1,0.1c0,0,0,0,0,0c0,0,0.1,0.1,0.1,0.1c0,0,0,0,0,0c0,0.1,0.1,0.1,0.1,0.1c0,0,0,0,0,0c0,0,0.1,0.1,0.1,0.1
				c0,0,0,0,0,0c0,0,0.1,0.1,0.1,0.1c0,0,0,0,0,0c0,0,0.1,0.1,0.1,0.1c0,0,0,0,0,0c0,0,0.1,0.1,0.1,0.1c0,0,0,0,0,0
				c0,0,0.1,0.1,0.1,0.1c0.3,0.2,0.6,0.2,1,0.2c3.5-0.4,5.2-0.6,8.7-1c0.7-0.1,1.2-0.5,1.4-1.2c0.3-1,0.6-2.1,0.8-3.1
				c0.3-1,0.6-2.1,0.8-3.1c5.8-0.6,9-0.9,14.4-1.3c-0.3-0.7-0.7-1.4-1-2.1C71.1,49.6,67.9,49.9,61.6,50.5z"/>
			<path class="st0" d="M70.1,40.2c-0.1,0-0.1,0-0.2,0C70,40.2,70.1,40.2,70.1,40.2z"/>
			<path class="st0" d="M71.3,35.3c0.1,0.3,0.2,0.5,0.4,0.8C71.5,35.8,71.4,35.5,71.3,35.3z"/>
			<path class="st0" d="M75.2,17.1c-0.4-0.6-0.6-1-0.9-1.6c-0.1-0.1-0.2-0.2-0.4-0.3c-0.1,0-0.1-0.1-0.2-0.1c-0.1,0-0.1-0.1-0.2-0.1
				c-0.1,0-0.1-0.1-0.2-0.1c-0.1,0-0.1-0.1-0.2-0.1c-0.1,0-0.1-0.1-0.2-0.1c-0.1,0-0.1-0.1-0.2-0.1c-0.1,0-0.1-0.1-0.2-0.1
				c-0.1,0-0.1-0.1-0.2-0.1c-0.1,0-0.1-0.1-0.2-0.1c-0.1,0-0.1-0.1-0.2-0.1c-0.1,0-0.1-0.1-0.2-0.1c-0.1,0-0.1-0.1-0.2-0.1
				c-0.1,0-0.1-0.1-0.2-0.1l0,0c0.1,0.1,0.1,0.1,0.2,0.2c0.4,0.6,0.6,1,0.9,1.6c7.9,15.4,11.6,23.2,18.8,38.8c0.2,0.4,0.2,0.7,0,1
				c-0.2,0.3-0.6,0.4-1.1,0.4c-3.4,0.2-5.1,0.3-8.5,0.6c-0.5,0-0.8,0-1.1-0.2c0,0,0,0,0,0c0.1,0,0.1,0.1,0.1,0.1c0,0,0,0,0,0
				c0.1,0,0.1,0.1,0.1,0.1c0,0,0,0,0,0c0,0,0.1,0.1,0.1,0.1c0,0,0,0,0,0c0,0,0.1,0.1,0.1,0.1c0,0,0,0,0,0c0.1,0,0.1,0.1,0.1,0.1
				c0,0,0,0,0,0c0.1,0,0.1,0.1,0.1,0.1c0,0,0,0,0,0c0.1,0,0.1,0.1,0.1,0.1c0,0,0,0,0,0c0,0,0.1,0.1,0.1,0.1c0,0,0,0,0,0
				c0,0,0.1,0.1,0.1,0.1c0,0,0,0,0,0c0,0,0.1,0.1,0.1,0.1c0,0,0,0,0,0c0,0,0.1,0.1,0.1,0.1c0,0,0,0,0,0c0,0,0.1,0.1,0.1,0.1
				c0,0,0,0,0,0c0.1,0,0.1,0.1,0.1,0.1c0,0,0,0,0,0c0.1,0,0.1,0.1,0.1,0.1c0.3,0.1,0.6,0.2,1.1,0.2c3.4-0.2,5.1-0.4,8.5-0.6
				c0.5,0,0.9-0.2,1.1-0.4c0.2-0.3,0.2-0.6,0-1C86.8,40.3,83.1,32.5,75.2,17.1z"/>
			<path class="st0" d="M69.4,31.1c0.1,0.3,0.3,0.6,0.4,0.8C69.7,31.7,69.5,31.4,69.4,31.1z"/>
			<path class="st0" d="M69.9,32.2c0.1,0.2,0.2,0.5,0.3,0.7C70.1,32.7,70,32.5,69.9,32.2z"/>
			<path class="st0" d="M71.7,36.3c0.1,0.3,0.3,0.7,0.5,1C72,37,71.9,36.6,71.7,36.3z"/>
			<path class="st0" d="M69.4,40.2c-0.1,0-0.2,0-0.3,0C69.2,40.3,69.3,40.2,69.4,40.2z"/>
			<path class="st0" d="M71.7,40c-0.1,0-0.2,0-0.3,0C71.5,40.1,71.6,40.1,71.7,40z"/>
			<path class="st0" d="M68.2,35.8c0.3-1.2,0.6-2.4,0.9-3.6c0.1-0.4,0.2-0.8,0.3-1.2c-0.6-1.2-1.2-2.6-1.9-4.1
				c-0.3,1-0.6,2.1-0.9,3.3c-0.3,1.2-0.6,2.4-0.9,3.6c-0.3,1.2-0.6,2.4-0.9,3.6s-0.6,2.3-0.9,3.3c1.2-0.1,2.1-0.2,3.1-0.3
				c0.1-0.4,0.2-0.7,0.3-1.1C67.6,38.2,67.9,37,68.2,35.8z"/>
			<path class="st0" d="M72.2,37.5c0.1,0.3,0.3,0.7,0.5,1C72.5,38.2,72.4,37.8,72.2,37.5z"/>
			<path class="st0" d="M72.8,38.7c0.2,0.4,0.4,0.8,0.5,1.3C73.1,39.5,72.9,39.1,72.8,38.7z"/>
			<path class="st0" d="M73.3,39.9c-0.4,0-0.7,0.1-1,0.1C72.6,40,72.9,39.9,73.3,39.9z"/>
			<path class="st0" d="M87,21.7c-0.4,0-0.8-0.1-1.1-0.3c0,0,0.1,0,0.1,0.1c0,0,0,0,0.1,0.1c0,0,0.1,0,0.1,0.1c0,0,0,0,0.1,0.1
				c0,0,0.1,0,0.1,0.1c0,0,0,0,0.1,0.1c0,0,0.1,0,0.1,0.1c0,0,0,0,0.1,0.1c0,0,0.1,0,0.1,0.1c0,0,0,0,0.1,0.1c0,0,0.1,0,0.1,0.1
				c0,0,0,0,0.1,0.1c0,0,0.1,0,0.1,0.1c0,0,0,0,0.1,0.1c0,0,0.1,0,0.1,0.1c0,0,0,0,0.1,0.1c0,0,0.1,0,0.1,0.1c0,0,0,0,0.1,0.1
				c0,0,0.1,0,0.1,0.1c0,0,0,0,0.1,0.1c0,0,0.1,0,0.1,0.1c0,0,0,0,0.1,0.1c0,0,0.1,0,0.1,0.1c0,0,0,0,0.1,0.1c0,0,0.1,0,0.1,0.1
				c0,0,0,0,0.1,0.1c0,0,0.1,0,0.1,0.1c0,0,0,0,0.1,0.1c0.3,0.2,0.6,0.3,1.1,0.3c3.4-0.2,5.5-0.3,8.3-0.5c0,0.9,0.1,1.8,0.1,2.7
				c-0.1-1.5-0.2-3.1-0.2-4.8C93.4,21.3,91.3,21.4,87,21.7z"/>
			<path class="st0" d="M123.7,12.5C123.6,12.4,123.6,12.4,123.7,12.5c-0.1-0.1-0.1-0.1-0.2-0.1c0,0-0.1,0-0.1,0c0,0,0-0.1-0.1-0.1
				c0,0-0.1,0-0.1,0c0,0,0-0.1-0.1-0.1c0,0-0.1,0-0.1,0c0,0,0-0.1-0.1-0.1c0,0-0.1,0-0.1,0c0,0,0-0.1-0.1-0.1c0,0-0.1,0-0.1,0
				c0,0,0-0.1-0.1-0.1c0,0-0.1,0-0.1,0c0,0,0-0.1-0.1-0.1c0,0-0.1,0-0.1,0c0,0,0-0.1-0.1-0.1c0,0-0.1,0-0.1,0c0,0,0-0.1-0.1-0.1
				c0,0-0.1,0-0.1,0c0,0,0-0.1-0.1-0.1c0,0-0.1,0-0.1,0c0,0,0-0.1-0.1-0.1c0,0-0.1,0-0.1,0c0,0,0-0.1-0.1-0.1c0,0-0.1,0-0.1,0
				c0,0,0-0.1-0.1-0.1c0,0-0.1,0-0.1,0c0,0,0-0.1-0.1-0.1c0.3,0.2,0.5,0.5,0.5,1c0,2.9,0.1,4.4,0.1,7.3c0,0.4-0.1,0.7-0.4,1
				c-0.3,0.3-0.6,0.5-1.1,0.5c-4.3,0.1-6.4,0.1-10.7,0.3c0.4,12.9,0.6,19.4,1.1,32.3c0,0.4-0.1,0.7-0.4,1c-0.2,0.3-0.6,0.4-1,0.5
				c-3.5,0.1-5.2,0.2-8.7,0.4c-0.3,0-0.7-0.1-1-0.4c0,0,0.1,0.1,0.1,0.1c0,0,0,0,0.1,0.1c0,0,0.1,0.1,0.1,0.1c0,0,0,0,0.1,0.1
				c0,0,0.1,0.1,0.1,0.1c0,0,0,0,0.1,0.1c0,0,0.1,0.1,0.1,0.1c0,0,0,0,0.1,0.1c0,0,0.1,0.1,0.1,0.1c0,0,0,0,0.1,0.1
				c0,0,0.1,0.1,0.1,0.1c0,0,0,0,0.1,0.1c0,0,0.1,0.1,0.1,0.1c0,0,0,0,0.1,0.1c0,0,0.1,0.1,0.1,0.1c0,0,0,0,0.1,0.1
				c0,0,0.1,0.1,0.1,0.1c0,0,0,0,0.1,0.1c0,0,0.1,0.1,0.1,0.1c0,0,0,0,0.1,0.1c0,0,0.1,0.1,0.1,0.1c0,0,0,0,0.1,0.1
				c0,0,0.1,0.1,0.1,0.1c0,0,0,0,0.1,0.1c0,0,0.1,0.1,0.1,0.1c0,0,0,0,0.1,0.1c0,0,0.1,0.1,0.1,0.1c0,0,0,0,0.1,0.1
				c0.3,0.3,0.6,0.4,1,0.4c3.5-0.2,5.2-0.2,8.7-0.4c0.4,0,0.7-0.2,1-0.5c0.2-0.3,0.4-0.6,0.4-1c-0.4-12.9-0.6-19.4-1.1-32.3
				c4.3-0.1,6.4-0.2,10.7-0.3c0.5,0,0.8-0.2,1.1-0.5c0.3-0.3,0.4-0.7,0.4-1c-0.1-2.9-0.1-4.4-0.1-7.3C124.1,13,124,12.7,123.7,12.5z
				"/>
			<path class="st0" d="M158.7,31.9C158.7,31.8,158.6,31.8,158.7,31.9c-0.1-0.1-0.1-0.1-0.2-0.1c0,0,0-0.1-0.1-0.1
				c0,0-0.1,0-0.1-0.1c0,0-0.1-0.1-0.1-0.1c0,0-0.1,0-0.1-0.1c0,0-0.1-0.1-0.1-0.1c0,0-0.1,0-0.1-0.1c0,0-0.1-0.1-0.1-0.1
				c0,0-0.1,0-0.1-0.1c0,0-0.1-0.1-0.1-0.1c0,0-0.1,0-0.1-0.1c0,0-0.1-0.1-0.1-0.1c0,0-0.1,0-0.1-0.1c0,0,0-0.1-0.1-0.1
				c0,0-0.1,0-0.1-0.1c0,0,0-0.1-0.1-0.1c0,0-0.1,0-0.1-0.1c0,0,0-0.1-0.1-0.1c0,0-0.1,0-0.1-0.1c0,0,0-0.1-0.1-0.1
				c0,0-0.1,0-0.1-0.1c0,0,0-0.1-0.1-0.1c0,0-0.1,0-0.1-0.1c0,0,0-0.1-0.1-0.1c0,0-0.1,0-0.1-0.1c0,0-0.1-0.1-0.1-0.1
				c0.3,0.2,0.4,0.5,0.4,1c-0.1,2.8-0.1,4.2-0.2,7.1c0,0.3-0.1,0.7-0.4,0.9c-0.2,0.3-0.6,0.4-1,0.4c-5.5-0.1-8.2-0.2-13.7-0.2
				c0,5.4-0.1,8.1-0.1,13.5c0,0.8-0.5,1.3-1.4,1.3c-3.6,0-5.6,0-9.2,0c-0.3,0-0.8-0.1-0.8-0.3v0c0,0.1,0.3,0.1,0.3,0.1
				c0,0.1,0.2,0.1,0.3,0.1c0,0.1,0.2,0.1,0.2,0.1c0,0.1,0.1,0.1,0.2,0.1c0,0.1,0.1,0.1,0.2,0.1c0,0.1,0.1,0.1,0.2,0.1
				c0,0.1,0.1,0.1,0.2,0.1c0,0.1,0.1,0.1,0.2,0.1c0,0.1,0.1,0.1,0.2,0.1c0,0.1,0.1,0.1,0.2,0.1c0,0.1,0.1,0.1,0.2,0.1
				c0,0.1,0.1,0.1,0.2,0.1c0,0.1,0.1,0.1,0.2,0.1c0.2,0.2,0.4,0.3,0.8,0.4c3.6,0,5.4,0,9.1,0c0.9,0,1.4-0.4,1.4-1.3
				c0-5.4,0.1-8.1,0.1-13.5c5.5,0,8.2,0.1,13.7,0.2c0.4,0,0.7-0.1,1-0.4c0.2-0.3,0.4-0.6,0.4-0.9c0.1-2.8,0.1-4.2,0.2-7.1
				C159.2,32.5,159,32.1,158.7,31.9C158.8,31.9,158.7,31.9,158.7,31.9z"/>
			<path class="st0" d="M145.4,29.4c0.1,0,0.1,0,0.2,0C145.6,29.4,145.5,29.4,145.4,29.4z"/>
			<path class="st0" d="M130,53.4c0,0,0-0.1-0.1-0.1C130,53.3,130,53.3,130,53.4z"/>
			<path class="st0" d="M146.8,28.7c0,0,0.1,0,0.1,0C146.8,28.7,146.8,28.7,146.8,28.7z"/>
			<path class="st0" d="M129.9,53.1c0-0.1-0.1-0.2-0.1-0.4C129.9,52.9,129.9,53,129.9,53.1z"/>
			<path class="st0" d="M152.1,29.5c0.1,0,0.2,0,0.3,0C152.2,29.5,152.1,29.5,152.1,29.5z"/>
			<path class="st0" d="M149.4,29.5c0,0,0.1,0,0.1,0C149.5,29.5,149.5,29.5,149.4,29.5z"/>
			<path class="st0" d="M150.8,29.7C150.8,29.7,150.8,29.7,150.8,29.7C150.8,29.7,150.8,29.7,150.8,29.7z"/>
			<path class="st0" d="M153.6,29.6c0.1,0,0.2,0,0.2,0C153.8,29.6,153.7,29.6,153.6,29.6z"/>
			<path class="st0" d="M164.3,12.8C164.3,12.7,164.3,12.7,164.3,12.8c-0.1-0.1-0.1-0.1-0.2-0.1c0,0,0,0,0,0c0,0-0.1-0.1-0.2-0.1
				c0,0,0,0,0,0c0,0-0.1-0.1-0.2-0.1c0,0,0,0,0,0c0,0-0.1-0.1-0.2-0.1c0,0,0,0,0,0c0,0-0.1-0.1-0.2-0.1c0,0,0,0,0,0
				c0,0-0.1-0.1-0.2-0.1c0,0,0,0,0,0c0,0-0.1-0.1-0.2-0.1c0,0,0,0,0,0c0,0-0.1-0.1-0.2-0.1c0,0,0,0,0,0c0,0-0.1-0.1-0.2-0.1
				c0,0,0,0,0,0c0,0-0.1-0.1-0.2-0.1c0,0,0,0,0,0c0,0-0.1-0.1-0.2-0.1c0,0,0,0,0,0c0,0-0.1-0.1-0.2-0.1c0,0,0,0,0,0
				c0,0-0.1-0.1-0.2-0.1c0.2,0.3,0.3,0.6,0.3,1c-0.1,2.9-0.2,4.4-0.3,7.3c0,0.3-0.1,0.6-0.4,0.9c-0.3,0.3-0.6,0.4-1.1,0.4
				c-7.6-0.3-11.3-0.3-18.9-0.4c0,3.7,0,5.5-0.1,9.2c1,0,1.8,0,2.7,0c-0.1,0-0.1,0-0.2,0c0-2.5,0-4.3,0.1-7.2
				c7.6,0.1,11.3,0.1,18.9,0.4c0.5,0,0.8-0.1,1.1-0.4c0.3-0.3,0.4-0.6,0.4-0.9c0.1-2.9,0.2-4.4,0.3-7.3c0-0.4-0.1-0.8-0.3-1
				C164.4,12.8,164.3,12.8,164.3,12.8z"/>
			<path class="st0" d="M148.1,29.5c0,0,0.1,0,0.1,0C148.2,29.5,148.1,29.5,148.1,29.5z"/>
			<path class="st0" d="M167.3,54.1c0,0-0.1-0.1-0.1-0.1C167.3,54,167.3,54.1,167.3,54.1z"/>
			<path class="st0" d="M193.5,45.8c0.2,0,0.5,0,0.7,0.1C194,45.8,193.8,45.8,193.5,45.8z"/>
			<path class="st0" d="M191.5,45.6c0.2,0,0.5,0,0.7,0.1C191.9,45.7,191.7,45.6,191.5,45.6z"/>
			<path class="st0" d="M185.2,45.2c0,0,0.1,0,0.1,0C185.3,45.2,185.2,45.2,185.2,45.2z"/>
			<path class="st0" d="M198.9,48.2C198.9,48.2,198.9,48.2,198.9,48.2c-0.1-0.1-0.1-0.1-0.2-0.1c0,0,0,0,0,0c0-0.1-0.1-0.1-0.2-0.1
				c0,0,0,0,0,0c0,0-0.1-0.1-0.2-0.1c0,0,0,0,0,0c0-0.1-0.1-0.1-0.2-0.1c0,0,0,0,0,0c0,0-0.1-0.1-0.2-0.1c0,0,0,0,0,0
				c0-0.1-0.1-0.1-0.2-0.1c0,0,0,0,0,0c0,0-0.1-0.1-0.2-0.1c0,0,0,0,0,0c0-0.1-0.1-0.1-0.2-0.1c0,0,0,0,0,0c0-0.1-0.1-0.1-0.2-0.1
				c0,0,0,0,0,0c0,0-0.1-0.1-0.2-0.1c0,0,0,0,0,0c0-0.1-0.1-0.1-0.2-0.1c0,0,0,0,0,0c0,0-0.1-0.1-0.2-0.1c0,0,0,0,0,0
				c0-0.1-0.1-0.1-0.2-0.1c0,0,0,0,0,0c0.2,0.3,0.3,0.6,0.3,1c-0.3,3.1-0.4,4.6-0.6,7.7c0,0.3-0.2,0.6-0.4,0.9
				c-0.2,0.3-0.6,0.4-1,0.4c-10.6-0.9-15.9-1.2-26.5-1.7c-0.3,0-0.6-0.1-0.8-0.3c0,0.1,0.1,0.1,0.2,0.1c0,0.1,0.1,0.1,0.2,0.1
				c0,0.1,0.1,0.1,0.2,0.1c0,0.1,0.1,0.1,0.2,0.1c0,0.1,0.1,0.1,0.2,0.1c0,0.1,0.1,0.1,0.2,0.1c0,0.1,0.1,0.1,0.2,0.1
				c0,0.1,0.1,0.1,0.2,0.1c0,0.1,0.1,0.1,0.2,0.1c0,0.1,0.1,0.1,0.2,0.1c0,0.1,0.1,0.1,0.2,0.1c0,0.1,0.1,0.1,0.2,0.1
				c0,0.1,0.1,0.1,0.2,0.1c0.2,0.2,0.5,0.4,1,0.4c10.6,0.5,15.9,0.8,26.5,1.7c0.4,0,0.8-0.1,1-0.4c0.2-0.3,0.4-0.6,0.4-0.9
				c0.3-3.1,0.4-4.6,0.6-7.7c0-0.4-0.1-0.7-0.3-1C199.1,48.3,199,48.3,198.9,48.2z"/>
			<path class="st0" d="M167.2,53.8c0-0.1-0.1-0.3,0-0.5C167.2,53.5,167.2,53.7,167.2,53.8z"/>
			<path class="st0" d="M186,45.2c0.1,0,0.2,0,0.3,0C186.1,45.2,186.1,45.2,186,45.2z"/>
			<path class="st0" d="M190.5,45.5c0.2,0,0.4,0,0.7,0.1C191,45.6,190.8,45.6,190.5,45.5z"/>
			<path class="st0" d="M184.4,45.1C184.4,45.1,184.4,45.1,184.4,45.1C184.4,45.1,184.4,45.1,184.4,45.1z"/>
			<path class="st0" d="M189.5,45.5c0.2,0,0.5,0,0.7,0.1C190,45.5,189.8,45.5,189.5,45.5z"/>
			<path class="st0" d="M188.5,45.4c0.3,0,0.6,0,0.9,0.1C189,45.4,188.8,45.4,188.5,45.4z"/>
			<path class="st0" d="M179.2,44.8c0.9,0.1,1.8,0.1,2.6,0.2c0.7-11.7,1.1-18.1,1.8-30.3c0-0.4-0.1-0.7-0.4-1c0,0-0.1,0-0.1-0.1
				c0,0,0,0-0.1-0.1c0,0-0.1,0-0.1-0.1c0,0,0,0-0.1-0.1c0,0-0.1,0-0.1-0.1c0,0,0,0-0.1-0.1c0,0-0.1,0-0.1-0.1c0,0,0,0-0.1-0.1
				c0,0-0.1,0-0.1-0.1c0,0,0,0-0.1-0.1c0,0-0.1,0-0.1-0.1c0,0,0,0-0.1-0.1c0,0-0.1,0-0.1-0.1c0,0,0,0-0.1-0.1c0,0-0.1,0-0.1-0.1
				c0,0,0,0-0.1-0.1c0,0-0.1,0-0.1-0.1c0,0,0,0-0.1-0.1c0,0-0.1,0-0.1-0.1c0,0,0,0-0.1-0.1c0,0-0.1,0-0.1-0.1c0,0,0,0-0.1-0.1
				c0,0-0.1,0-0.1-0.1c0,0,0,0-0.1-0.1c0,0-0.1,0-0.1-0.1c0,0,0,0-0.1-0.1c0,0-0.1,0-0.1-0.1c0.2,0.2,0.4,0.5,0.4,0.9
				C180.3,25.5,180,32,179.2,44.8z"/>
			<path class="st0" d="M194.6,45.9c0.4,0,0.7,0.1,1.1,0.1C195.4,45.9,195,45.9,194.6,45.9z"/>
			<path class="st0" d="M186.8,45.3c0.1,0,0.2,0,0.4,0C187,45.3,186.9,45.3,186.8,45.3z"/>
			<path class="st0" d="M187.6,45.3c0.1,0,0.3,0,0.4,0C187.9,45.3,187.8,45.3,187.6,45.3z"/>
			<path class="st0" d="M192.5,45.7c0.2,0,0.5,0,0.7,0.1C193,45.7,192.7,45.7,192.5,45.7z"/>
			<path class="st0" d="M203.3,56.3c0-0.1,0-0.3,0-0.5C203.3,56,203.3,56.1,203.3,56.3z"/>
			<path class="st0" d="M203.5,56.6c0,0,0-0.1-0.1-0.1C203.4,56.5,203.4,56.6,203.5,56.6z"/>
			<path class="st0" d="M221.3,16.9c0,0-0.1,0-0.1-0.1c0,0,0,0-0.1-0.1c0,0-0.1,0-0.1-0.1c0,0,0,0-0.1-0.1c0,0-0.1,0-0.1-0.1
				c0,0,0,0-0.1-0.1c0,0-0.1,0-0.1-0.1c0,0,0,0-0.1-0.1c0,0-0.1,0-0.1-0.1c0,0,0,0-0.1-0.1c0,0-0.1,0-0.1-0.1c0,0,0,0-0.1-0.1
				c0,0-0.1,0-0.1-0.1c0,0,0,0-0.1-0.1c0,0-0.1,0-0.1-0.1c0,0,0,0-0.1-0.1c0,0-0.1,0-0.1-0.1c0,0,0,0-0.1-0.1c0,0-0.1,0-0.1-0.1
				c0,0,0,0-0.1-0.1c0,0-0.1,0-0.1-0.1c0,0,0,0-0.1-0.1c0,0-0.1,0-0.1-0.1c0,0,0,0-0.1-0.1c0,0-0.1,0-0.1-0.1c0,0,0,0-0.1-0.1
				c0,0-0.1,0-0.1-0.1c0,0,0,0-0.1-0.1c0.3,0.3,0.5,0.6,0.4,1c-1.8,16.4-2.7,24.6-4.5,41c-0.1,0.9-0.6,1.2-1.6,1.1
				c-3.5-0.4-5.1-0.5-8.6-0.9c-0.3,0-0.6-0.1-0.6-0.3c0,0,0,0,0,0c0,0.1,0,0.1,0,0.1c0,0.1,0,0.1,0.1,0.1c0,0.1,0.1,0.1,0.1,0.1
				c0,0.1,0.1,0.1,0.2,0.1c0,0.1,0.1,0.1,0.2,0.1c0,0.1,0.1,0.1,0.2,0.1c0,0.1,0.1,0.1,0.2,0.1c0,0.1,0.1,0.1,0.2,0.1
				c0,0.1,0.1,0.1,0.2,0.1c0,0.1,0.1,0.1,0.2,0.1c0,0.1,0.1,0.1,0.2,0.1c0,0.1,0.1,0.1,0.2,0.1c0,0.1,0.1,0.1,0.2,0.1
				c0.2,0.2,0.5,0.4,1,0.4c3.5,0.3,5.2,0.5,8.7,0.9c1,0.1,1.5-0.3,1.6-1.1c1.8-16.4,2.7-24.6,4.5-41
				C221.8,17.5,221.6,17.2,221.3,16.9z"/>
			<path class="st0" d="M249,25.9c0.1-0.1,0.2-0.2,0.2-0.3C249.2,25.7,249.1,25.8,249,25.9z"/>
			<path class="st0" d="M252,22.8c0.2-0.2,0.3-0.3,0.5-0.5C252.3,22.5,252.2,22.6,252,22.8z"/>
			<path class="st0" d="M251,23.9c0.1-0.1,0.3-0.3,0.4-0.4C251.2,23.6,251.1,23.7,251,23.9z"/>
			<path class="st0" d="M253.1,21.6c0.4-0.4,0.8-0.8,1.2-1.3C253.9,20.8,253.5,21.2,253.1,21.6z"/>
			<path class="st0" d="M237.9,17C237.9,17,237.9,17,237.9,17C237.9,17,237.9,17,237.9,17z"/>
			<path class="st0" d="M248,26.9c0.1-0.1,0.1-0.1,0.2-0.2C248.2,26.7,248.1,26.8,248,26.9z"/>
			<path class="st0" d="M245.1,30c0.3-0.4,0.6-0.7,1-1c-1.5-3-2.7-5.2-4.6-8.9c-0.2-0.4-0.4-0.8-0.8-1c-0.1-0.1-0.1-0.1-0.2-0.1
				c-0.1-0.1-0.1-0.1-0.2-0.1c-0.1-0.1-0.1-0.1-0.2-0.1c-0.1-0.1-0.1-0.1-0.2-0.1c-0.1-0.1-0.1-0.1-0.2-0.1
				c-0.1-0.1-0.1-0.1-0.2-0.1c-0.1-0.1-0.1-0.1-0.2-0.1c-0.1-0.1-0.1-0.1-0.2-0.1c-0.1-0.1-0.1-0.1-0.2-0.1
				c-0.1-0.1-0.1-0.1-0.2-0.1c-0.1-0.1-0.1-0.1-0.2-0.1c-0.1-0.1-0.1-0.1-0.2-0.1c-0.1,0-0.1-0.1-0.2-0.1c0.2,0.2,0.4,0.5,0.6,0.9
				C241.5,22.9,242.7,25.2,245.1,30z"/>
			<path class="st0" d="M232.7,59.4c-0.2,0.3-0.5,0.5-0.8,0.7s-0.6,0.2-1,0.2c-4-0.5-6-0.8-10.1-1.3c-0.2,0-0.3,0-0.5-0.1
				c-0.1,0-0.2,0-0.2-0.1c0,0,0,0,0,0c0,0,0.1,0.1,0.1,0.1c0,0,0,0,0,0c0,0,0.1,0.1,0.1,0.1c0,0,0,0,0,0c0,0,0.1,0.1,0.1,0.1
				c0,0,0,0,0,0c0,0,0.1,0.1,0.1,0.1c0,0,0,0,0,0c0,0,0.1,0.1,0.1,0.1c0,0,0,0,0,0c0,0,0.1,0.1,0.1,0.1c0,0,0,0,0,0
				c0,0,0.1,0.1,0.1,0.1c0,0,0,0,0,0c0,0,0.1,0.1,0.1,0.1c0,0,0,0,0,0c0,0,0.1,0.1,0.1,0.1c0,0,0,0,0,0c0,0,0.1,0.1,0.1,0.1
				c0,0,0,0,0,0c0,0,0.1,0.1,0.1,0.1c0,0,0,0,0,0c0,0,0.1,0.1,0.1,0.1c0,0,0,0,0,0c0,0,0.1,0.1,0.1,0.1c0,0,0,0,0,0
				c0.1,0.1,0.2,0.2,0.4,0.2c0.2,0,0.3,0,0.5,0.1c4,0.5,6,0.7,10.1,1.3c0.3,0,0.7,0,1-0.2c0.3-0.2,0.6-0.4,0.8-0.7
				c3.5-3.9,5.4-6.1,8.7-9.6c1.5,3,2.6,5.2,4.1,8.5c-2-4.2-3.3-6.8-5.6-11.5C238.5,52.9,236.5,55.1,232.7,59.4z"/>
			<path class="st0" d="M247.1,27.9c0,0,0.1-0.1,0.1-0.1C247.1,27.8,247.1,27.9,247.1,27.9z"/>
			<path class="st0" d="M250,24.9c0.1-0.1,0.2-0.2,0.3-0.3C250.2,24.7,250.1,24.8,250,24.9z"/>
			<path class="st0" d="M248,60.3c0.2,0.4,0.4,0.9,0.7,1.4C248.5,61.2,248.2,60.7,248,60.3z"/>
			<path class="st0" d="M270.3,23.5C270.3,23.5,270.3,23.5,270.3,23.5c-0.1-0.1-0.1-0.1-0.2-0.1c0,0,0,0,0,0c0,0-0.1-0.1-0.1-0.1
				c0,0,0,0,0,0c0,0-0.1-0.1-0.1-0.1c0,0,0,0,0,0c0,0-0.1-0.1-0.1-0.1c0,0,0,0,0,0c0,0-0.1-0.1-0.1-0.1c0,0,0,0,0,0
				c0,0-0.1-0.1-0.1-0.1c0,0,0,0,0,0c0,0-0.1-0.1-0.1-0.1c0,0,0,0,0,0c0,0-0.1-0.1-0.1-0.1c0,0,0,0,0,0c0,0-0.1-0.1-0.1-0.1
				c0,0,0,0,0,0c0,0-0.1-0.1-0.1-0.1c0,0,0,0,0,0c0,0-0.1-0.1-0.1-0.1c0,0,0,0,0,0c0,0-0.1-0.1-0.1-0.1c0,0,0,0,0,0
				c0,0-0.1-0.1-0.1-0.1c0,0,0,0,0,0c0,0-0.1-0.1-0.1-0.1c0.1,0.1,0.2,0.2,0.2,0.3c0,0.2-0.2,0.5-0.5,0.7
				c-7.1,7-10.6,10.6-17.4,17.7c4.4,9.1,6.6,13.6,10.7,22.7c0.1,0.3,0.3,0.6,0.3,0.8c0.1,0.2,0.1,0.4,0,0.6
				c-0.1,0.3-0.3,0.4-0.6,0.3c-4.2-0.7-6.3-1.1-10.5-1.8c-0.3-0.1-0.6-0.2-0.9-0.4c0,0,0.1,0.1,0.1,0.1c0,0,0,0,0,0
				c0,0,0.1,0.1,0.1,0.1c0,0,0,0,0,0c0,0,0.1,0.1,0.1,0.1c0,0,0,0,0,0c0,0,0.1,0.1,0.1,0.1c0,0,0,0,0,0c0,0,0.1,0.1,0.1,0.1
				c0,0,0,0,0,0c0,0,0.1,0.1,0.1,0.1c0,0,0,0,0,0c0,0,0.1,0.1,0.1,0.1c0,0,0,0,0,0c0,0,0.1,0.1,0.2,0.1c0,0,0,0,0,0
				c0,0,0.1,0.1,0.2,0.1c0,0,0,0,0,0c0,0,0.1,0.1,0.2,0.1c0,0,0,0,0,0c0,0,0.1,0.1,0.1,0.1c0,0,0,0,0,0c0,0,0.1,0.1,0.1,0.1
				c0,0,0,0,0,0c0,0,0.1,0.1,0.1,0.1c0,0,0,0,0,0c0,0,0.1,0.1,0.1,0.1c0,0,0,0,0,0c0.2,0.2,0.5,0.4,0.9,0.4c4.2,0.7,6.3,1,10.5,1.8
				c0.4,0.1,0.5-0.1,0.6-0.3c0-0.1,0-0.3,0-0.6s-0.2-0.5-0.3-0.8c-4.1-9.1-6.2-13.7-10.7-22.7c6.8-7.2,10.3-10.7,17.4-17.7
				c0.3-0.2,0.4-0.5,0.5-0.7C270.5,23.7,270.5,23.6,270.3,23.5z"/>
			<path class="st0" d="M11.7,55.4c-0.5-0.5-1-1-1.4-1.5C10.7,54.5,11.2,55,11.7,55.4z"/>
			<path class="st0" d="M37.7,47.6c-0.1-0.1-0.2-0.1-0.3-0.1C37.5,47.5,37.6,47.5,37.7,47.6z"/>
			<path class="st0" d="M38,47.8C38,47.8,38,47.8,38,47.8c-0.1-0.1-0.2-0.2-0.3-0.2C37.8,47.6,37.9,47.7,38,47.8z"/>
			<path class="st0" d="M11.9,55.7c0.5,0.5,1,0.9,1.5,1.3c0,0,0,0,0,0C12.9,56.6,12.4,56.2,11.9,55.7z"/>
			<path class="st0" d="M23.5,50.3c0.1,0,0.2,0.1,0.2,0.1C23.7,50.4,23.6,50.3,23.5,50.3z"/>
			<path class="st0" d="M39.6,19.6c-0.1-0.1-0.1-0.1-0.2-0.2C39.4,19.5,39.5,19.5,39.6,19.6C39.6,19.6,39.6,19.6,39.6,19.6z"/>
			<path class="st0" d="M69.8,32c0,0.1,0.1,0.2,0.1,0.3C69.9,32.1,69.8,32,69.8,32z"/>
			<path class="st0" d="M71.6,13.3c-0.1-0.1-0.2-0.2-0.4-0.3C71.4,13.1,71.5,13.2,71.6,13.3z"/>
			<path class="st0" d="M78.4,51.2L78.4,51.2c0.1,0.3,0.3,0.5,0.4,0.8C78.7,51.7,78.5,51.4,78.4,51.2z"/>
			<path class="st0" d="M69.3,31L69.3,31c0,0,0,0.1,0.1,0.1C69.4,31.1,69.4,31,69.3,31z"/>
			<path class="st0" d="M72.2,37.3c0,0.1,0,0.1,0.1,0.2C72.2,37.4,72.2,37.4,72.2,37.3z"/>
			<path class="st0" d="M72.7,38.5c0,0,0,0.1,0.1,0.1C72.7,38.6,72.7,38.6,72.7,38.5z"/>
			<path class="st0" d="M72.3,40c-0.2,0-0.4,0-0.6,0.1C71.9,40,72.1,40,72.3,40z"/>
			<path class="st0" d="M70.2,32.9c0,0.1,0.1,0.2,0.1,0.3C70.3,33.1,70.3,33,70.2,32.9z"/>
			<path class="st0" d="M71.4,40.1c-0.4,0-0.8,0.1-1.2,0.1C70.5,40.1,70.9,40.1,71.4,40.1z"/>
			<path class="st0" d="M69.1,40.3c-0.7,0.1-1.3,0.1-2,0.2l0,0C67.8,40.4,68.4,40.3,69.1,40.3z"/>
			<path class="st0" d="M71.6,36.1c0,0.1,0.1,0.2,0.1,0.2C71.7,36.2,71.7,36.2,71.6,36.1z"/>
			<path class="st0" d="M70,40.2c-0.2,0-0.4,0-0.6,0.1C69.6,40.2,69.8,40.2,70,40.2z"/>
			<path class="st0" d="M71.2,35.1c0,0.1,0.1,0.1,0.1,0.2C71.2,35.2,71.2,35.1,71.2,35.1z"/>
			<path class="st0" d="M97.9,25.9c0.5,9.9,0.8,16.3,1.3,27.5C98.7,42.2,98.4,35.8,97.9,25.9z"/>
			<path class="st0" d="M149.6,29.5c0.4,0,0.8,0,1.2,0C150.4,29.5,150,29.5,149.6,29.5z"/>
			<path class="st0" d="M148.2,29.5c0.4,0,0.8,0,1.2,0C149,29.5,148.6,29.5,148.2,29.5z"/>
			<path class="st0" d="M152.3,29.5c0.4,0,0.9,0,1.3,0C153.2,29.6,152.8,29.6,152.3,29.5z"/>
			<path class="st0" d="M130,53.3c0,0,0-0.1,0-0.2C129.9,53.2,130,53.2,130,53.3z"/>
			<path class="st0" d="M162,10.9L162,10.9C162,10.9,162,10.9,162,10.9C162,10.9,162,10.9,162,10.9z"/>
			<path class="st0" d="M150.8,29.5c0.4,0,0.8,0,1.2,0C151.6,29.5,151.2,29.5,150.8,29.5z"/>
			<path class="st0" d="M146.9,29.4c0.4,0,0.8,0,1.2,0C147.7,29.4,147.3,29.4,146.9,29.4z"/>
			<path class="st0" d="M153.9,29.6c0.5,0,1,0,1.5,0C154.8,29.6,154.3,29.6,153.9,29.6z"/>
			<path class="st0" d="M145.6,29.4c0.4,0,0.8,0,1.1,0C146.4,29.4,146,29.4,145.6,29.4z"/>
			<path class="st0" d="M144.2,29.4c0.4,0,0.8,0,1.2,0C145,29.4,144.6,29.4,144.2,29.4z"/>
			<path class="st0" d="M130,53.4c0.1,0.1,0.2,0.2,0.3,0.3C130.2,53.6,130.1,53.5,130,53.4z"/>
			<path class="st0" d="M185.3,45.2c0.2,0,0.4,0,0.7,0C185.7,45.2,185.5,45.2,185.3,45.2z"/>
			<path class="st0" d="M167.3,54c0-0.1,0-0.1,0-0.2C167.2,53.9,167.2,53.9,167.3,54z"/>
			<path class="st0" d="M184.5,45.1c0.2,0,0.5,0,0.7,0C184.9,45.1,184.7,45.1,184.5,45.1z"/>
			<path class="st0" d="M167.3,54.1c0.1,0.1,0.2,0.2,0.3,0.3c0,0,0,0,0,0C167.5,54.4,167.4,54.2,167.3,54.1z"/>
			<path class="st0" d="M194.2,45.8c0.1,0,0.3,0,0.4,0C194.5,45.9,194.4,45.8,194.2,45.8z"/>
			<path class="st0" d="M193.2,45.8c0.1,0,0.2,0,0.3,0C193.4,45.8,193.3,45.8,193.2,45.8z"/>
			<path class="st0" d="M192.1,45.7c0.1,0,0.2,0,0.4,0C192.4,45.7,192.3,45.7,192.1,45.7z"/>
			<path class="st0" d="M186.2,45.2c0.2,0,0.4,0,0.5,0C186.6,45.3,186.4,45.2,186.2,45.2z"/>
			<path class="st0" d="M180.8,11.8L180.8,11.8C180.7,11.8,180.7,11.7,180.8,11.8C180.7,11.7,180.7,11.8,180.8,11.8z"/>
			<path class="st0" d="M184.4,45.1c-0.8-0.1-1.7-0.1-2.6-0.2l0,0C182.7,45,183.6,45.1,184.4,45.1z"/>
			<path class="st0" d="M191.2,45.6c0.1,0,0.2,0,0.3,0C191.4,45.6,191.3,45.6,191.2,45.6z"/>
			<path class="st0" d="M190.2,45.5c0.1,0,0.2,0,0.3,0C190.4,45.5,190.3,45.5,190.2,45.5z"/>
			<path class="st0" d="M187.1,45.3c0.2,0,0.3,0,0.5,0C187.5,45.3,187.3,45.3,187.1,45.3z"/>
			<path class="st0" d="M188,45.4c0.2,0,0.3,0,0.5,0C188.3,45.4,188.2,45.4,188,45.4z"/>
			<path class="st0" d="M189.3,45.5c0.1,0,0.1,0,0.2,0C189.5,45.5,189.4,45.5,189.3,45.5z"/>
			<path class="st0" d="M203.4,56.5c0-0.1,0-0.1,0-0.2C203.4,56.4,203.4,56.4,203.4,56.5z"/>
			<path class="st0" d="M203.7,56.9c-0.1-0.1-0.2-0.2-0.3-0.3C203.5,56.7,203.6,56.9,203.7,56.9z"/>
			<path class="st0" d="M249.3,25.6c0.2-0.2,0.5-0.5,0.7-0.7C249.7,25.1,249.5,25.4,249.3,25.6z"/>
			<path class="st0" d="M247.2,27.8c0.3-0.3,0.6-0.6,0.9-0.9C247.8,27.2,247.5,27.5,247.2,27.8z"/>
			<path class="st0" d="M248.3,26.7c0.3-0.3,0.5-0.5,0.8-0.8C248.8,26.1,248.5,26.4,248.3,26.7z"/>
			<path class="st0" d="M247.1,27.9c-0.3,0.3-0.7,0.7-1,1.1l0,0C246.4,28.6,246.8,28.2,247.1,27.9z"/>
			<path class="st0" d="M250.3,24.6c0.2-0.2,0.4-0.5,0.7-0.7C250.7,24.1,250.5,24.3,250.3,24.6z"/>
			<path class="st0" d="M237.9,17c-0.2-0.1-0.4-0.1-0.6-0.2C237.6,16.8,237.8,16.9,237.9,17z"/>
			<path class="st0" d="M248,60.2c0,0,0,0.1,0.1,0.1C248,60.3,248,60.2,248,60.2z"/>
			<path class="st0" d="M220,58.7c0,0,0.1,0.1,0.2,0.1l0,0C220.1,58.8,220.1,58.8,220,58.7z"/>
			<path class="st0" d="M238.4,17.3c-0.1-0.1-0.3-0.2-0.5-0.3C238.1,17,238.3,17.1,238.4,17.3L238.4,17.3z"/>
			<path class="st0" d="M251.4,23.5c0.2-0.2,0.4-0.4,0.7-0.7C251.8,23,251.6,23.2,251.4,23.5z"/>
			<path class="st0" d="M252.5,22.3c0.2-0.2,0.4-0.4,0.7-0.7C252.9,21.9,252.7,22.1,252.5,22.3z"/>
		</g>
		<g>
			<g>
				<path class="st12" d="M38.1,18.4c0.4,0.2,0.7,0.4,0.9,0.7c0.2,0.3,0.2,0.7,0,1.1c-1.8,3.1-2.6,4.6-4.3,7.7
					c-0.2,0.4-0.4,0.6-0.6,0.7c-0.3,0.1-0.6,0-1-0.1c-1.1-0.5-2.3-1-3.6-1.2c-1.3-0.2-2.6-0.2-3.9,0c-1.7,0.2-3.2,0.8-4.5,1.6
					c-1.3,0.8-2.4,1.8-3.3,3c-0.9,1.2-1.5,2.6-1.8,4c-0.3,1.5-0.4,3-0.1,4.6c0.3,1.6,0.8,3,1.6,4.3c0.8,1.3,1.8,2.4,2.9,3.3
					c1.2,0.9,2.5,1.5,3.9,1.9c1.5,0.4,3,0.5,4.6,0.2c1.3-0.2,2.5-0.6,3.7-1.1c1.1-0.6,2.2-1.4,3-2.1c0.3-0.3,0.6-0.4,0.9-0.4
					c0.2,0,0.5,0.2,0.8,0.4c2.4,2.6,3.6,3.9,6,6.6c0.3,0.4,0.3,0.8,0.2,1.1c-0.1,0.3-0.4,0.6-0.7,0.8c-1.7,1.4-3.6,2.7-5.6,3.6
					c-2,1-4.2,1.6-6.6,1.9c-2.1,0.3-4.1,0.3-6.1,0.1c-2-0.2-3.9-0.7-5.7-1.4c-1.8-0.7-3.5-1.6-5.1-2.7c-1.6-1.1-3-2.4-4.3-3.9
					c-1.3-1.5-2.3-3.1-3.2-4.9c-0.9-1.8-1.5-3.7-1.8-5.8c-0.4-2.1-0.4-4.1-0.2-6.1c0.2-2,0.7-3.9,1.4-5.7c0.7-1.8,1.7-3.6,2.9-5.1
					c1.2-1.6,2.6-3,4.2-4.3c1.6-1.2,3.4-2.3,5.3-3.1c1.9-0.8,4-1.4,6.2-1.7c2.5-0.4,4.9-0.4,7.2,0C33.8,16.7,36.1,17.5,38.1,18.4z"
					/>
				<path class="st12" d="M59.8,13.9c0-0.1,0.1-0.3,0.2-0.4c0.1-0.1,0.2-0.3,0.4-0.4c0.2-0.1,0.3-0.2,0.5-0.3
					c0.2-0.1,0.4-0.1,0.5-0.2c3.2-0.3,4.8-0.4,8-0.7c0.4,0,0.7,0,0.9,0.2c0.3,0.2,0.5,0.4,0.6,0.5c0.4,0.6,0.6,1,0.9,1.6
					c7.9,15.4,11.6,23.2,18.8,38.8c0.2,0.4,0.2,0.7,0,1c-0.2,0.3-0.6,0.4-1.1,0.4c-3.4,0.2-5.1,0.3-8.5,0.6c-0.5,0-0.8,0-1.1-0.2
					c-0.3-0.1-0.5-0.4-0.6-0.8c-0.4-1-0.9-1.9-1.4-2.9c-0.5-1-0.9-1.9-1.4-2.9c-6.4,0.5-9.5,0.8-15.9,1.4c-0.3,1-0.6,2.1-0.8,3.1
					c-0.3,1-0.6,2.1-0.8,3.1c-0.2,0.7-0.6,1.2-1.4,1.2c-3.5,0.4-5.2,0.6-8.7,1c-0.4,0-0.7,0-1-0.2c-0.3-0.2-0.3-0.5-0.2-0.9
					C52.2,39.8,54.6,31.1,59.8,13.9z M66.6,26c-0.3,1-0.6,2.1-0.9,3.3s-0.6,2.4-0.9,3.6c-0.3,1.2-0.6,2.4-0.9,3.6
					c-0.3,1.2-0.6,2.3-0.9,3.3c3.7-0.4,5.6-0.5,9.3-0.8C70.2,33.8,69,31.2,66.6,26z"/>
				<path class="st12" d="M84.1,12.1c0-0.4,0.1-0.7,0.4-1c0.3-0.3,0.6-0.4,1-0.4c13.5-0.9,20.3-1.1,33.8-1.4c0.4,0,0.7,0.1,1,0.3
					c0.3,0.2,0.5,0.5,0.5,1c0,2.9,0.1,4.4,0.1,7.3c0,0.4-0.1,0.7-0.4,1c-0.3,0.3-0.6,0.5-1.1,0.5c-4.3,0.1-6.4,0.1-10.7,0.3
					c0.4,12.9,0.6,19.4,1.1,32.3c0,0.4-0.1,0.7-0.4,1c-0.2,0.3-0.6,0.4-1,0.5c-3.5,0.1-5.2,0.2-8.7,0.4c-0.3,0-0.7-0.1-1-0.4
					c-0.3-0.3-0.5-0.6-0.5-1c-0.6-12.9-0.9-19.4-1.6-32.3c-4.3,0.2-6.4,0.3-10.7,0.6c-0.4,0-0.8-0.1-1.1-0.3
					c-0.3-0.2-0.5-0.6-0.5-1.1C84.4,16.5,84.3,15,84.1,12.1z"/>
				<path class="st12" d="M128.7,10.6c0-0.4,0.1-0.7,0.4-1c0.2-0.2,0.5-0.4,0.9-0.4c12-0.1,18.1,0,30.1,0.4c0.5,0,0.8,0.2,1.1,0.4
					c0.2,0.3,0.3,0.6,0.3,1c-0.1,2.9-0.2,4.4-0.3,7.3c0,0.3-0.1,0.7-0.4,0.9c-0.3,0.3-0.6,0.4-1.1,0.4c-7.6-0.2-11.3-0.3-18.9-0.4
					c0,3.7,0,5.5-0.1,9.2c5.5,0,8.3,0.1,13.8,0.2c0.4,0,0.7,0.1,1,0.3c0.3,0.2,0.4,0.5,0.4,1c-0.1,2.8-0.1,4.2-0.2,7.1
					c0,0.3-0.1,0.7-0.4,0.9c-0.2,0.3-0.6,0.4-1,0.4c-5.5-0.1-8.2-0.2-13.7-0.2c0,5.4-0.1,8.1-0.1,13.5c0,0.8-0.5,1.3-1.4,1.3
					c-3.6,0-5.4,0-9.1,0c-0.7-0.1-1.1-0.5-1.1-1.2C128.9,35.4,128.9,27.1,128.7,10.6z"/>
				<path class="st12" d="M168.1,11.2c0-0.4,0.2-0.7,0.4-0.9c0.3-0.2,0.6-0.4,1.1-0.3c3.7,0.2,5.6,0.3,9.3,0.5c0.4,0,0.7,0.2,1,0.4
					c0.3,0.3,0.4,0.6,0.4,1c-0.8,12.8-1.1,19.3-1.9,32.1c6.6,0.4,9.9,0.6,16.5,1.2c0.4,0,0.7,0.2,0.9,0.4c0.2,0.3,0.3,0.6,0.3,1
					c-0.3,3.1-0.4,4.6-0.6,7.7c0,0.3-0.2,0.6-0.4,0.9c-0.2,0.3-0.6,0.4-1,0.4c-10.6-0.9-15.9-1.2-26.5-1.7c-0.9,0-1.3-0.5-1.3-1.4
					C167,36,167.4,27.7,168.1,11.2z"/>
				<path class="st12" d="M206.3,13.9c0-0.4,0.2-0.6,0.4-0.9s0.6-0.3,1.1-0.3c3.7,0.4,5.5,0.5,9.2,0.9c0.3,0,0.6,0.2,1,0.5
					c0.3,0.3,0.5,0.6,0.4,1c-1.8,16.4-2.7,24.6-4.5,41c-0.1,0.9-0.6,1.2-1.6,1.1c-3.5-0.4-5.2-0.5-8.7-0.9c-0.9-0.1-1.3-0.6-1.2-1.4
					C204,38.5,204.8,30.3,206.3,13.9z"/>
				<path class="st12" d="M219.1,57.3c0.2-0.3,0.4-0.6,0.6-0.8c0.2-0.3,0.4-0.6,0.7-0.9c6.3-7.3,9.5-10.9,16-18
					c-1.9-3.7-3.8-7.3-5.6-10.9c-1.9-3.6-3.8-7.4-5.8-10.9c-0.1-0.2-0.2-0.3-0.2-0.5c-0.1-0.1-0.1-0.3-0.1-0.5
					c0-0.1,0.2-0.2,0.4-0.2c0.2,0,0.4,0,0.6-0.1c4.4,0.5,6.5,0.8,10.9,1.4c0.8,0.1,1.3,0.6,1.7,1.4c2.5,4.7,3.7,7.1,6.1,11.8
					c3.7-3.9,5.5-5.8,9.3-9.6c0.5-0.7,1.2-1,2-0.8c3.9,0.6,5.9,0.9,9.8,1.6c0.2,0,0.4,0.1,0.6,0.1c0.2,0,0.4,0.1,0.6,0.1
					c0.2,0,0.4,0.1,0.5,0.2c0.1,0.1,0.2,0.2,0.2,0.3c0,0.2-0.2,0.5-0.5,0.7c-7.1,7-10.6,10.6-17.4,17.7c4.4,9.1,6.6,13.6,10.7,22.7
					c0.1,0.3,0.3,0.6,0.3,0.8s0.1,0.4,0,0.6c-0.1,0.3-0.3,0.4-0.6,0.3c-4.2-0.7-6.3-1.1-10.5-1.8c-0.3-0.1-0.6-0.2-0.9-0.4
					s-0.4-0.5-0.5-0.9c-2.5-5.2-3.7-7.8-6.3-13c-3.9,4.2-5.8,6.4-9.7,10.7c-0.2,0.3-0.5,0.5-0.8,0.7c-0.3,0.2-0.6,0.2-1,0.2
					c-4-0.5-6-0.8-10.1-1.3c-0.2,0-0.3,0-0.5-0.1c-0.2,0-0.3-0.1-0.4-0.2c-0.1-0.1-0.2-0.2-0.1-0.4C219,57.4,219.1,57.3,219.1,57.3z
					"/>
			</g>
		</g>
	</g>
	<g>
		<g>
			<path class="st9" d="M338.9,40.5"/>
			<path class="st9" d="M300,40.5"/>
			<path class="st6" d="M300,40.5"/>
			<path class="st4" d="M343.9,40.8"/>
			<path class="st4" d="M295.2,40.5"/>
			<g>
				<path class="st12" d="M289.1,50.9c-9.1-1.6-9.2-12.5-9.1-18.5c0.1-2.9-0.4-6.1,3.3-7.8c1.6-0.7,5.2-0.9,6.6,1.1
					c1.9,2.7,1.3,8.8,1.6,11.4c0.2,1.9,1.4,4.5,3.2,4"/>
			</g>
			<path class="st14" d="M299.8,13.4c0,0-0.3-10.1,2.3-10.4c2.3-0.2,8.6,1.2,10.2,3.1C312.3,6.1,305.5,6.8,299.8,13.4z"/>
			<path d="M338.8,13.4c0,0,0.3-10.1-2.3-10.4c-2.3-0.2-8.6,1.2-10.2,3.1C326.3,6.1,333.1,6.8,338.8,13.4z"/>
			<ellipse class="st7" cx="285.9" cy="29.4" rx="3.1" ry="2.6"/>
			<g>
				<path class="st12" d="M294.7,40.7c-4.4,4.4-6.3,10.4-6.3,16.6c0,14.2,13.8,19.5,31,19.5c17.2,0,31.2-5.3,31.2-19.5
					c0-6.7-2.2-12-6.7-17.2"/>
				<path class="st12" d="M344.4,40.5c0,0,0.5-1.8,0.9-4.2c0.6-3.8,0.3-7.3-0.2-10.4c-1.7-11.5-11.7-20.7-25.9-20.7
					S296,14,293.3,25.4c-0.8,3.3-0.6,8-0.1,11.3c0.4,2.5,1.3,3.8,1.3,3.8S310.1,44.4,344.4,40.5"/>
			</g>
			<path class="st14" d="M325.6,31.4c0,1.8-2.5,3-3.6,1.6c-0.4-0.5-2,0.3-2.3-1.6c-0.3-1.8,1.1-1.6,2.9-1.6
				C324.4,29.9,325.6,29.6,325.6,31.4z"/>
			<path d="M318.3,29.7c0.3-0.4,3.5-0.4,3.7,0c0,0.1-1.3,2.3-1.8,2.4C319.5,32.2,318.2,29.8,318.3,29.7z"/>
			<line class="st1" x1="313.7" y1="27.8" x2="309.7" y2="26.8"/>
			<line class="st1" x1="313.4" y1="30" x2="308.5" y2="29.9"/>
			<line class="st1" x1="313.7" y1="32.2" x2="309.1" y2="33.1"/>
			<line class="st1" x1="326.9" y1="27.8" x2="330.9" y2="26.8"/>
			<line class="st1" x1="327.2" y1="30" x2="332.1" y2="29.9"/>
			<line class="st1" x1="326.9" y1="32.2" x2="331.5" y2="33.1"/>
			<g>
				<g>
					<path d="M316.8,33.4c0.5,0,0.5-0.8,0-0.8S316.3,33.4,316.8,33.4L316.8,33.4z"/>
				</g>
			</g>
			<path class="st1" d="M324.6,22.8c1-3.5,7.1-5.4,10.2-0.6"/>
			<path class="st1" d="M314.6,22.8c-1-3.5-7.1-5.4-10.2-0.6"/>
			<path class="st1" d="M314.7,36.3c-0.1,1.8,4.4,3,5.2-0.6c0,0,0.1-3.4,0.1-3.6"/>
			<path class="st1" d="M325.7,36.3c0.1,1.8-4.8,3-5.7-0.6c0,0-0.1-3.4-0.1-3.6"/>
			<g>
				<g>
					<path class="st5" d="M320,43.9c0,0.2-0.1,0.2-0.2,0.2s-0.2,0-0.2-0.2c0-0.2,0.1-0.4,0.2-0.4C319.9,43.5,320,43.7,320,43.9z"/>
					<g>
						<circle class="st11" cx="319.7" cy="47.2" r="3.2"/>
						<rect x="317" y="46.7" class="st5" width="6" height="0"/>
						<path class="st5" d="M319.7,48.8c0-0.2-0.2-0.3-0.4-0.3c-0.2,0-0.4,0.1-0.4,0.3c0,0.1,0.2,0.2,0.2,0.3v1.5h0.3V49
							C319.5,49,319.7,48.9,319.7,48.8z"/>
					</g>
				</g>
				<g>
					<path class="st15" d="M319.3,43.6c-15.1,0-25.2-2.2-25.5-2.3l-0.3-1.3l0.2-1.5c-1.2-0.1,19.1,3.8,51.2,0.1l0.2,1.6l-0.2,1.1
						C336.5,42.7,326.2,43.6,319.3,43.6z"/>
				</g>
			</g>
			<path class="st14" d="M297.7,64.3c-0.3,5.2-4.9,4.8-6.3,3.2c-0.5-0.6-2.2-3.7-2.6-5.8c-0.3-2.1,2.6,0.2,4.6-0.4
				C295.8,60.6,297.9,62.1,297.7,64.3z"/>
			<g>
				<g>
					<path class="st8" d="M307.9,76.3c-0.1,0.5-8.9,0.9-9.5-0.2c-0.4-0.9-0.3-2.7,0.1-3.5C299.9,69.7,308.2,73.5,307.9,76.3z"/>
				</g>
				<path class="st2" d="M302,76.8c0,0-0.3-1.6,0-2.1"/>
				<path class="st2" d="M304.1,76.8c0,0-0.3-1.6,0-2.1"/>
				<path class="st2" d="M299.8,76.4c0,0-0.3-1.6,0-2.1"/>
			</g>
			<g>
				<g>
					<path class="st8" d="M332.2,76.3c0.1,0.5,8.9,0.9,9.5-0.2c0.4-0.9,0.3-2.7-0.1-3.5C340.2,69.7,331.9,73.5,332.2,76.3z"/>
				</g>
				<path class="st2" d="M338.2,76.8c0,0,0.3-1.6,0-2.1"/>
				<path class="st2" d="M336,76.8c0,0,0.3-1.6,0-2.1"/>
				<path class="st2" d="M340.3,76.4c0,0,0.3-1.6,0-2.1"/>
			</g>
			<path class="st13" d="M350.4,57.9c0,2.1-1.2,5.2-3.1,4.2c-2-1-4.6,0.5-4.6-1.6c0-2.1,1.8-4.2,3.9-4.2S350.4,55.7,350.4,57.9z"/>
			<path class="st10" d="M350.6,57.4c0-6.2-1.8-11.2-5.7-16l0.2-1.1l-0.2-1.6c0,0-0.1,0-0.1,0c0.1-0.7,0.3-1.4,0.4-2.3
				c0.6-3.8,0.3-7.3-0.2-10.4c-0.7-4.8-2.9-9.3-6.3-12.8c0-1.7,0-9.8-2.3-10.1c-2.3-0.2-9.1,1.1-10.8,3c-2.2-0.5-2.7-0.8-7.7-0.8
				v71.4c0,0,1.4,0,1.4,0c4.6,0,9-0.2,12.9-1.1c-0.1,0.2-0.1,0.5-0.1,0.8c0.1,0.5,8.9,1,9.5-0.2c0.4-0.9,0.3-2.7-0.1-3.4
				c0-0.1-0.1-0.2-0.1-0.2C347.2,69.4,350.6,64.5,350.6,57.4z M327.4,6.4c1.4,0.3,3.9,1.1,6.7,2.9C332.1,8.1,329.9,7.1,327.4,6.4z"
				/>
			<g>
				<path class="st12" d="M348.2,46.9c1.9,4.8-1.6,8.7-7.2,11.7c-2,1.1-7.2,5.2-10.7,3c-1.6-0.9-4.1-4.8-2.2-6.9
					c2.4-2.7,6.2-1.9,9.4-4.6c2.3-1.9,3.5-4.2,4-5.1C344.4,39.3,347.5,45.3,348.2,46.9z"/>
			</g>
			<path class="st3" d="M327.6,57.5c0.4,0.1,1.4,0,1.6-0.6"/>
			<path class="st3" d="M328.2,59.4c0.4,0.1,1.4,0,1.6-0.6"/>
			<path class="st3" d="M329.5,60.9c0.4,0.1,1.4,0,1.6-0.6"/>
		</g>
	</g>
</g>
</svg>
